<?xml version="1.0" encoding="UTF-8" standalone="no"?>
<!DOCTYPE svg PUBLIC "-//W3C//DTD SVG 1.1//EN"
 "http://www.w3.org/Graphics/SVG/1.1/DTD/svg11.dtd">
<!-- Generated by graphviz version 2.43.0 (0)
 -->
<!-- Title: config_mod::config_chem_state Pages: 1 -->
<svg width="773pt" height="105pt"
 viewBox="0.00 0.00 773.00 104.50" xmlns="http://www.w3.org/2000/svg" xmlns:xlink="http://www.w3.org/1999/xlink">
<g id="graph0" class="graph" transform="scale(1 1) rotate(0) translate(4 100.5)">
<title>config_mod::config_chem_state</title>
<polygon fill="white" stroke="transparent" points="-4,4 -4,-100.5 769,-100.5 769,4 -4,4"/>
<!-- Node1 -->
<g id="node1" class="node">
<title>Node1</title>
<g id="a_node1"><a xlink:title="Reads the species database.">
<polygon fill="#bfbfbf" stroke="black" points="0,-49.5 0,-79.5 108,-79.5 108,-49.5 0,-49.5"/>
<text text-anchor="start" x="8" y="-67.5" font-family="Helvetica,sans-Serif" font-size="10.00">config_mod::config</text>
<text text-anchor="middle" x="54" y="-56.5" font-family="Helvetica,sans-Serif" font-size="10.00">_chem_state</text>
</a>
</g>
</g>
<!-- Node2 -->
<g id="node2" class="node">
<title>Node2</title>
<g id="a_node2"><a xlink:href="group__core__modules.html#ga51caf927c8403a431dd55956762ad350" target="_top" xlink:title="CC_Error.">
<polygon fill="white" stroke="black" points="299,-77 299,-96 411,-96 411,-77 299,-77"/>
<text text-anchor="middle" x="355" y="-84" font-family="Helvetica,sans-Serif" font-size="10.00">error_mod::cc_error</text>
</a>
</g>
</g>
<!-- Node1&#45;&gt;Node2 -->
<g id="edge1" class="edge">
<title>Node1&#45;&gt;Node2</title>
<path fill="none" stroke="midnightblue" d="M99.31,-79.52C113.43,-83.61 129.21,-87.46 144,-89.5 192.22,-96.14 247.25,-95.04 288.88,-92.47"/>
<polygon fill="midnightblue" stroke="midnightblue" points="289.15,-95.96 298.89,-91.8 288.68,-88.97 289.15,-95.96"/>
</g>
<!-- Node5 -->
<g id="node5" class="node">
<title>Node5</title>
<g id="a_node5"><a xlink:href="group__core__modules.html#ga45871ad07c125bd69f834507753b9c77" target="_top" xlink:title="Find the indices of species.">
<polygon fill="white" stroke="black" points="144,-49.5 144,-79.5 263,-79.5 263,-49.5 144,-49.5"/>
<text text-anchor="start" x="152" y="-67.5" font-family="Helvetica,sans-Serif" font-size="10.00">chemstate_mod::find</text>
<text text-anchor="middle" x="203.5" y="-56.5" font-family="Helvetica,sans-Serif" font-size="10.00">_index_of_species</text>
</a>
</g>
</g>
<!-- Node1&#45;&gt;Node5 -->
<g id="edge4" class="edge">
<title>Node1&#45;&gt;Node5</title>
<path fill="none" stroke="midnightblue" d="M108.25,-64.5C116.55,-64.5 125.23,-64.5 133.82,-64.5"/>
<polygon fill="midnightblue" stroke="midnightblue" points="133.83,-68 143.83,-64.5 133.83,-61 133.83,-68"/>
</g>
<!-- Node6 -->
<g id="node6" class="node">
<title>Node6</title>
<g id="a_node6"><a xlink:href="group__core__modules.html#ga0dccd8869724ce68c8a19c30b8d28e11" target="_top" xlink:title="Find the number of species.">
<polygon fill="white" stroke="black" points="144,-0.5 144,-30.5 263,-30.5 263,-0.5 144,-0.5"/>
<text text-anchor="start" x="152" y="-18.5" font-family="Helvetica,sans-Serif" font-size="10.00">chemstate_mod::find</text>
<text text-anchor="middle" x="203.5" y="-7.5" font-family="Helvetica,sans-Serif" font-size="10.00">_number_of_species</text>
</a>
</g>
</g>
<!-- Node1&#45;&gt;Node6 -->
<g id="edge6" class="edge">
<title>Node1&#45;&gt;Node6</title>
<path fill="none" stroke="midnightblue" d="M100.46,-49.4C115.39,-44.44 132.14,-38.87 147.69,-33.71"/>
<polygon fill="midnightblue" stroke="midnightblue" points="148.81,-37.03 157.19,-30.55 146.6,-30.38 148.81,-37.03"/>
</g>
<!-- Node3 -->
<g id="node3" class="node">
<title>Node3</title>
<g id="a_node3"><a xlink:href="group__core__modules.html#ga3890886a8d25cb4253fe2706c44e6e78" target="_top" xlink:title="Print a string in multiple lines.">
<polygon fill="white" stroke="black" points="447,-77 447,-96 606,-96 606,-77 447,-77"/>
<text text-anchor="middle" x="526.5" y="-84" font-family="Helvetica,sans-Serif" font-size="10.00">charpak_mod::wordwrapprint</text>
</a>
</g>
</g>
<!-- Node2&#45;&gt;Node3 -->
<g id="edge2" class="edge">
<title>Node2&#45;&gt;Node3</title>
<path fill="none" stroke="midnightblue" d="M411.03,-86.5C419.23,-86.5 427.85,-86.5 436.54,-86.5"/>
<polygon fill="midnightblue" stroke="midnightblue" points="436.73,-90 446.73,-86.5 436.73,-83 436.73,-90"/>
</g>
<!-- Node4 -->
<g id="node4" class="node">
<title>Node4</title>
<g id="a_node4"><a xlink:href="group__core__modules.html#ga36b722fb300c543f0eb910116bb28973" target="_top" xlink:title="Count the number of times a character appears in a string.">
<polygon fill="white" stroke="black" points="642,-77 642,-96 765,-96 765,-77 642,-77"/>
<text text-anchor="middle" x="703.5" y="-84" font-family="Helvetica,sans-Serif" font-size="10.00">charpak_mod::cntmat</text>
</a>
</g>
</g>
<!-- Node3&#45;&gt;Node4 -->
<g id="edge3" class="edge">
<title>Node3&#45;&gt;Node4</title>
<path fill="none" stroke="midnightblue" d="M606.04,-86.5C614.57,-86.5 623.21,-86.5 631.64,-86.5"/>
<polygon fill="midnightblue" stroke="midnightblue" points="631.79,-90 641.79,-86.5 631.79,-83 631.79,-90"/>
</g>
<!-- Node5&#45;&gt;Node2 -->
<g id="edge5" class="edge">
<title>Node5&#45;&gt;Node2</title>
<path fill="none" stroke="midnightblue" d="M263.16,-73.13C271.62,-74.38 280.38,-75.67 288.96,-76.93"/>
<polygon fill="midnightblue" stroke="midnightblue" points="288.53,-80.4 298.93,-78.4 289.54,-73.48 288.53,-80.4"/>
</g>
</g>
</svg>
