<?xml version="1.0" encoding="UTF-8" standalone="no"?>
<!DOCTYPE svg PUBLIC "-//W3C//DTD SVG 1.1//EN"
 "http://www.w3.org/Graphics/SVG/1.1/DTD/svg11.dtd">
<!-- Generated by graphviz version 2.43.0 (0)
 -->
<!-- Title: chemstate_mod::getspecconcbyname Pages: 1 -->
<svg width="782pt" height="66pt"
 viewBox="0.00 0.00 782.00 66.00" xmlns="http://www.w3.org/2000/svg" xmlns:xlink="http://www.w3.org/1999/xlink">
<g id="graph0" class="graph" transform="scale(1 1) rotate(0) translate(4 62)">
<title>chemstate_mod::getspecconcbyname</title>
<polygon fill="white" stroke="transparent" points="-4,4 -4,-62 778,-62 778,4 -4,4"/>
<!-- Node1 -->
<g id="node1" class="node">
<title>Node1</title>
<g id="a_node1"><a xlink:title="Get the concentration of a species by name.">
<polygon fill="#bfbfbf" stroke="black" points="0,-19.5 0,-38.5 202,-38.5 202,-19.5 0,-19.5"/>
<text text-anchor="middle" x="101" y="-26.5" font-family="Helvetica,sans-Serif" font-size="10.00">chemstate_mod::getspecconcbyname</text>
</a>
</g>
</g>
<!-- Node2 -->
<g id="node2" class="node">
<title>Node2</title>
<g id="a_node2"><a xlink:href="group__core__modules.html#ga51caf927c8403a431dd55956762ad350" target="_top" xlink:title="CC_Error.">
<polygon fill="white" stroke="black" points="273,-38.5 273,-57.5 385,-57.5 385,-38.5 273,-38.5"/>
<text text-anchor="middle" x="329" y="-45.5" font-family="Helvetica,sans-Serif" font-size="10.00">error_mod::cc_error</text>
</a>
</g>
</g>
<!-- Node1&#45;&gt;Node2 -->
<g id="edge1" class="edge">
<title>Node1&#45;&gt;Node2</title>
<path fill="none" stroke="midnightblue" d="M202.11,-37.42C222.73,-39.15 243.93,-40.93 262.91,-42.53"/>
<polygon fill="midnightblue" stroke="midnightblue" points="262.66,-46.02 272.91,-43.37 263.24,-39.04 262.66,-46.02"/>
</g>
<!-- Node5 -->
<g id="node5" class="node">
<title>Node5</title>
<g id="a_node5"><a xlink:href="group__core__modules.html#ga486e3baceb107a718cd8c73e83c92f1b" target="_top" xlink:title="Find the species by name.">
<polygon fill="white" stroke="black" points="238,-0.5 238,-19.5 420,-19.5 420,-0.5 238,-0.5"/>
<text text-anchor="middle" x="329" y="-7.5" font-family="Helvetica,sans-Serif" font-size="10.00">chemstate_mod::findspecbyname</text>
</a>
</g>
</g>
<!-- Node1&#45;&gt;Node5 -->
<g id="edge4" class="edge">
<title>Node1&#45;&gt;Node5</title>
<path fill="none" stroke="midnightblue" d="M202.11,-20.58C210.68,-19.86 219.36,-19.13 227.93,-18.41"/>
<polygon fill="midnightblue" stroke="midnightblue" points="228.26,-21.9 237.93,-17.57 227.67,-14.92 228.26,-21.9"/>
</g>
<!-- Node3 -->
<g id="node3" class="node">
<title>Node3</title>
<g id="a_node3"><a xlink:href="group__core__modules.html#ga3890886a8d25cb4253fe2706c44e6e78" target="_top" xlink:title="Print a string in multiple lines.">
<polygon fill="white" stroke="black" points="456,-38.5 456,-57.5 615,-57.5 615,-38.5 456,-38.5"/>
<text text-anchor="middle" x="535.5" y="-45.5" font-family="Helvetica,sans-Serif" font-size="10.00">charpak_mod::wordwrapprint</text>
</a>
</g>
</g>
<!-- Node2&#45;&gt;Node3 -->
<g id="edge2" class="edge">
<title>Node2&#45;&gt;Node3</title>
<path fill="none" stroke="midnightblue" d="M385.07,-48C403.78,-48 425.18,-48 445.83,-48"/>
<polygon fill="midnightblue" stroke="midnightblue" points="445.9,-51.5 455.9,-48 445.9,-44.5 445.9,-51.5"/>
</g>
<!-- Node4 -->
<g id="node4" class="node">
<title>Node4</title>
<g id="a_node4"><a xlink:href="group__core__modules.html#ga36b722fb300c543f0eb910116bb28973" target="_top" xlink:title="Count the number of times a character appears in a string.">
<polygon fill="white" stroke="black" points="651,-38.5 651,-57.5 774,-57.5 774,-38.5 651,-38.5"/>
<text text-anchor="middle" x="712.5" y="-45.5" font-family="Helvetica,sans-Serif" font-size="10.00">charpak_mod::cntmat</text>
</a>
</g>
</g>
<!-- Node3&#45;&gt;Node4 -->
<g id="edge3" class="edge">
<title>Node3&#45;&gt;Node4</title>
<path fill="none" stroke="midnightblue" d="M615.04,-48C623.57,-48 632.21,-48 640.64,-48"/>
<polygon fill="midnightblue" stroke="midnightblue" points="640.79,-51.5 650.79,-48 640.79,-44.5 640.79,-51.5"/>
</g>
</g>
</svg>
