<?xml version="1.0" encoding="UTF-8" standalone="no"?>
<!DOCTYPE svg PUBLIC "-//W3C//DTD SVG 1.1//EN"
 "http://www.w3.org/Graphics/SVG/1.1/DTD/svg11.dtd">
<!-- Generated by graphviz version 2.43.0 (0)
 -->
<!-- Title: ccpr_seasalt_mod::ccpr_seasalt_init Pages: 1 -->
<svg width="873pt" height="214pt"
 viewBox="0.00 0.00 873.00 213.50" xmlns="http://www.w3.org/2000/svg" xmlns:xlink="http://www.w3.org/1999/xlink">
<g id="graph0" class="graph" transform="scale(1 1) rotate(0) translate(4 209.5)">
<title>ccpr_seasalt_mod::ccpr_seasalt_init</title>
<polygon fill="white" stroke="transparent" points="-4,4 -4,-209.5 869,-209.5 869,4 -4,4"/>
<!-- Node1 -->
<g id="node1" class="node">
<title>Node1</title>
<g id="a_node1"><a xlink:title="Initialize the CATCHem SeaSalt Process.">
<polygon fill="#bfbfbf" stroke="black" points="0,-98.5 0,-128.5 131,-128.5 131,-98.5 0,-98.5"/>
<text text-anchor="start" x="8" y="-116.5" font-family="Helvetica,sans-Serif" font-size="10.00">ccpr_seasalt_mod::ccpr</text>
<text text-anchor="middle" x="65.5" y="-105.5" font-family="Helvetica,sans-Serif" font-size="10.00">_seasalt_init</text>
</a>
</g>
</g>
<!-- Node2 -->
<g id="node2" class="node">
<title>Node2</title>
<g id="a_node2"><a xlink:href="group__core__modules.html#ga9d9a1354b84c23bc24cd4db6a547d348" target="_top" xlink:title="CC_CheckVar.">
<polygon fill="white" stroke="black" points="178,-186 178,-205 311,-205 311,-186 178,-186"/>
<text text-anchor="middle" x="244.5" y="-193" font-family="Helvetica,sans-Serif" font-size="10.00">error_mod::cc_checkvar</text>
</a>
</g>
</g>
<!-- Node1&#45;&gt;Node2 -->
<g id="edge1" class="edge">
<title>Node1&#45;&gt;Node2</title>
<path fill="none" stroke="midnightblue" d="M89.29,-128.6C109.19,-141.29 139.15,-159.27 167,-171.5 176.76,-175.78 187.52,-179.65 197.81,-182.97"/>
<polygon fill="midnightblue" stroke="midnightblue" points="196.9,-186.35 207.48,-185.98 198.97,-179.66 196.9,-186.35"/>
</g>
<!-- Node3 -->
<g id="node3" class="node">
<title>Node3</title>
<g id="a_node3"><a xlink:href="group__core__modules.html#ga51caf927c8403a431dd55956762ad350" target="_top" xlink:title="CC_Error.">
<polygon fill="white" stroke="black" points="378.5,-167 378.5,-186 490.5,-186 490.5,-167 378.5,-167"/>
<text text-anchor="middle" x="434.5" y="-174" font-family="Helvetica,sans-Serif" font-size="10.00">error_mod::cc_error</text>
</a>
</g>
</g>
<!-- Node1&#45;&gt;Node3 -->
<g id="edge5" class="edge">
<title>Node1&#45;&gt;Node3</title>
<path fill="none" stroke="midnightblue" d="M122.62,-128.53C137.02,-132.1 152.53,-135.68 167,-138.5 235.19,-151.81 314.06,-162.47 368.21,-169.08"/>
<polygon fill="midnightblue" stroke="midnightblue" points="368.01,-172.58 378.36,-170.31 368.85,-165.63 368.01,-172.58"/>
</g>
<!-- Node6 -->
<g id="node6" class="node">
<title>Node6</title>
<g id="a_node6"><a xlink:href="group__catchem__seasalt__process.html#ga219dc79e66afa8191a6e92d4cc39faa5" target="_top" xlink:title="Scheme GEOS2012 Sea Salt Emission scheme.">
<polygon fill="white" stroke="black" points="167.5,-98.5 167.5,-128.5 321.5,-128.5 321.5,-98.5 167.5,-98.5"/>
<text text-anchor="start" x="175.5" y="-116.5" font-family="Helvetica,sans-Serif" font-size="10.00">ccpr_scheme_geos12</text>
<text text-anchor="middle" x="244.5" y="-105.5" font-family="Helvetica,sans-Serif" font-size="10.00">_mod::ccpr_scheme_geos12</text>
</a>
</g>
</g>
<!-- Node1&#45;&gt;Node6 -->
<g id="edge6" class="edge">
<title>Node1&#45;&gt;Node6</title>
<path fill="none" stroke="midnightblue" d="M131.15,-113.5C139.6,-113.5 148.36,-113.5 157.09,-113.5"/>
<polygon fill="midnightblue" stroke="midnightblue" points="157.31,-117 167.31,-113.5 157.31,-110 157.31,-117"/>
</g>
<!-- Node9 -->
<g id="node9" class="node">
<title>Node9</title>
<g id="a_node9"><a xlink:href="group__catchem__seasalt__process.html#ga6b12277385cd50fdeb6b768eba5a379d" target="_top" xlink:title="Run the Gong Sea Salt Emission scheme.">
<polygon fill="white" stroke="black" points="167,-0.5 167,-30.5 322,-30.5 322,-0.5 167,-0.5"/>
<text text-anchor="start" x="175" y="-18.5" font-family="Helvetica,sans-Serif" font-size="10.00">ccpr_scheme_gong03</text>
<text text-anchor="middle" x="244.5" y="-7.5" font-family="Helvetica,sans-Serif" font-size="10.00">_mod::ccpr_scheme_gong03</text>
</a>
</g>
</g>
<!-- Node1&#45;&gt;Node9 -->
<g id="edge9" class="edge">
<title>Node1&#45;&gt;Node9</title>
<path fill="none" stroke="midnightblue" d="M83.48,-98.23C102.58,-81.74 135.11,-55.67 167,-39.5 170.7,-37.62 174.58,-35.86 178.54,-34.2"/>
<polygon fill="midnightblue" stroke="midnightblue" points="179.85,-37.45 187.89,-30.55 177.3,-30.93 179.85,-37.45"/>
</g>
<!-- Node11 -->
<g id="node11" class="node">
<title>Node11</title>
<g id="a_node11"><a xlink:href="group__catchem__seasalt__process.html#gabbe0667d0c1f074ded89b95181c3560d" target="_top" xlink:title="Run the Gong97 Sea Salt Emission scheme.">
<polygon fill="white" stroke="black" points="167,-49.5 167,-79.5 322,-79.5 322,-49.5 167,-49.5"/>
<text text-anchor="start" x="175" y="-67.5" font-family="Helvetica,sans-Serif" font-size="10.00">ccpr_scheme_gong97</text>
<text text-anchor="middle" x="244.5" y="-56.5" font-family="Helvetica,sans-Serif" font-size="10.00">_mod::ccpr_scheme_gong97</text>
</a>
</g>
</g>
<!-- Node1&#45;&gt;Node11 -->
<g id="edge13" class="edge">
<title>Node1&#45;&gt;Node11</title>
<path fill="none" stroke="midnightblue" d="M121.05,-98.4C139.47,-93.3 160.21,-87.56 179.31,-82.27"/>
<polygon fill="midnightblue" stroke="midnightblue" points="180.43,-85.59 189.13,-79.55 178.56,-78.85 180.43,-85.59"/>
</g>
<!-- Node2&#45;&gt;Node3 -->
<g id="edge2" class="edge">
<title>Node2&#45;&gt;Node3</title>
<path fill="none" stroke="midnightblue" d="M311.25,-188.85C329.75,-186.99 349.85,-184.95 368.31,-183.09"/>
<polygon fill="midnightblue" stroke="midnightblue" points="368.78,-186.56 378.38,-182.07 368.07,-179.59 368.78,-186.56"/>
</g>
<!-- Node4 -->
<g id="node4" class="node">
<title>Node4</title>
<g id="a_node4"><a xlink:href="group__core__modules.html#ga3890886a8d25cb4253fe2706c44e6e78" target="_top" xlink:title="Print a string in multiple lines.">
<polygon fill="white" stroke="black" points="547,-167 547,-186 706,-186 706,-167 547,-167"/>
<text text-anchor="middle" x="626.5" y="-174" font-family="Helvetica,sans-Serif" font-size="10.00">charpak_mod::wordwrapprint</text>
</a>
</g>
</g>
<!-- Node3&#45;&gt;Node4 -->
<g id="edge3" class="edge">
<title>Node3&#45;&gt;Node4</title>
<path fill="none" stroke="midnightblue" d="M490.71,-176.5C505.09,-176.5 520.96,-176.5 536.6,-176.5"/>
<polygon fill="midnightblue" stroke="midnightblue" points="536.83,-180 546.83,-176.5 536.83,-173 536.83,-180"/>
</g>
<!-- Node5 -->
<g id="node5" class="node">
<title>Node5</title>
<g id="a_node5"><a xlink:href="group__core__modules.html#ga36b722fb300c543f0eb910116bb28973" target="_top" xlink:title="Count the number of times a character appears in a string.">
<polygon fill="white" stroke="black" points="742,-167 742,-186 865,-186 865,-167 742,-167"/>
<text text-anchor="middle" x="803.5" y="-174" font-family="Helvetica,sans-Serif" font-size="10.00">charpak_mod::cntmat</text>
</a>
</g>
</g>
<!-- Node4&#45;&gt;Node5 -->
<g id="edge4" class="edge">
<title>Node4&#45;&gt;Node5</title>
<path fill="none" stroke="midnightblue" d="M706.04,-176.5C714.57,-176.5 723.21,-176.5 731.64,-176.5"/>
<polygon fill="midnightblue" stroke="midnightblue" points="731.79,-180 741.79,-176.5 731.79,-173 731.79,-180"/>
</g>
<!-- Node7 -->
<g id="node7" class="node">
<title>Node7</title>
<g id="a_node7"><a xlink:href="group__catchem__seasalt__process.html#ga275eee2242132e3c0e6b39aeab71ab55" target="_top" xlink:title="Jeagle et al. 2012 SST correction.">
<polygon fill="white" stroke="black" points="363,-98.5 363,-128.5 506,-128.5 506,-98.5 363,-98.5"/>
<text text-anchor="start" x="371" y="-116.5" font-family="Helvetica,sans-Serif" font-size="10.00">ccpr_seasalt_common</text>
<text text-anchor="middle" x="434.5" y="-105.5" font-family="Helvetica,sans-Serif" font-size="10.00">_mod::jeaglesstcorrection</text>
</a>
</g>
</g>
<!-- Node6&#45;&gt;Node7 -->
<g id="edge7" class="edge">
<title>Node6&#45;&gt;Node7</title>
<path fill="none" stroke="midnightblue" d="M321.7,-113.5C331.93,-113.5 342.45,-113.5 352.75,-113.5"/>
<polygon fill="midnightblue" stroke="midnightblue" points="352.96,-117 362.96,-113.5 352.96,-110 352.96,-117"/>
</g>
<!-- Node8 -->
<g id="node8" class="node">
<title>Node8</title>
<g id="a_node8"><a xlink:href="group__catchem__seasalt__process.html#gae88d813a03a04ba38a4bd900773d8064" target="_top" xlink:title="Function to compute sea salt emissions following the Gong style parameterization.">
<polygon fill="white" stroke="black" points="358,-49.5 358,-79.5 511,-79.5 511,-49.5 358,-49.5"/>
<text text-anchor="start" x="366" y="-67.5" font-family="Helvetica,sans-Serif" font-size="10.00">ccpr_seasalt_common</text>
<text text-anchor="middle" x="434.5" y="-56.5" font-family="Helvetica,sans-Serif" font-size="10.00">_mod::seasaltemissiongong</text>
</a>
</g>
</g>
<!-- Node6&#45;&gt;Node8 -->
<g id="edge8" class="edge">
<title>Node6&#45;&gt;Node8</title>
<path fill="none" stroke="midnightblue" d="M303.18,-98.47C323.03,-93.29 345.44,-87.45 366,-82.09"/>
<polygon fill="midnightblue" stroke="midnightblue" points="367.13,-85.42 375.93,-79.51 365.37,-78.64 367.13,-85.42"/>
</g>
<!-- Node9&#45;&gt;Node7 -->
<g id="edge10" class="edge">
<title>Node9&#45;&gt;Node7</title>
<path fill="none" stroke="midnightblue" d="M306.56,-30.6C312.02,-33.13 317.26,-36.08 322,-39.5 344.2,-55.53 335.83,-73.43 358,-89.5 359.9,-90.88 361.88,-92.18 363.93,-93.41"/>
<polygon fill="midnightblue" stroke="midnightblue" points="362.76,-96.75 373.23,-98.33 366.03,-90.56 362.76,-96.75"/>
</g>
<!-- Node9&#45;&gt;Node8 -->
<g id="edge11" class="edge">
<title>Node9&#45;&gt;Node8</title>
<path fill="none" stroke="midnightblue" d="M303.18,-30.53C323.03,-35.71 345.44,-41.55 366,-46.91"/>
<polygon fill="midnightblue" stroke="midnightblue" points="365.37,-50.36 375.93,-49.49 367.13,-43.58 365.37,-50.36"/>
</g>
<!-- Node10 -->
<g id="node10" class="node">
<title>Node10</title>
<g id="a_node10"><a xlink:href="group__catchem__seasalt__process.html#gaf4e9c720d3143836adb1a5fcf0fe011f" target="_top" xlink:title="Calculate the weibull distribution for 10m wind speed (u10, v10)">
<polygon fill="white" stroke="black" points="364.5,-0.5 364.5,-30.5 504.5,-30.5 504.5,-0.5 364.5,-0.5"/>
<text text-anchor="start" x="372.5" y="-18.5" font-family="Helvetica,sans-Serif" font-size="10.00">ccpr_seasalt_common</text>
<text text-anchor="middle" x="434.5" y="-7.5" font-family="Helvetica,sans-Serif" font-size="10.00">_mod::weibulldistribution</text>
</a>
</g>
</g>
<!-- Node9&#45;&gt;Node10 -->
<g id="edge12" class="edge">
<title>Node9&#45;&gt;Node10</title>
<path fill="none" stroke="midnightblue" d="M322.24,-15.5C332.78,-15.5 343.62,-15.5 354.21,-15.5"/>
<polygon fill="midnightblue" stroke="midnightblue" points="354.26,-19 364.26,-15.5 354.26,-12 354.26,-19"/>
</g>
<!-- Node11&#45;&gt;Node7 -->
<g id="edge14" class="edge">
<title>Node11&#45;&gt;Node7</title>
<path fill="none" stroke="midnightblue" d="M303.18,-79.53C323.03,-84.71 345.44,-90.55 366,-95.91"/>
<polygon fill="midnightblue" stroke="midnightblue" points="365.37,-99.36 375.93,-98.49 367.13,-92.58 365.37,-99.36"/>
</g>
<!-- Node11&#45;&gt;Node8 -->
<g id="edge15" class="edge">
<title>Node11&#45;&gt;Node8</title>
<path fill="none" stroke="midnightblue" d="M322.24,-64.5C330.61,-64.5 339.17,-64.5 347.65,-64.5"/>
<polygon fill="midnightblue" stroke="midnightblue" points="347.92,-68 357.92,-64.5 347.92,-61 347.92,-68"/>
</g>
<!-- Node11&#45;&gt;Node10 -->
<g id="edge16" class="edge">
<title>Node11&#45;&gt;Node10</title>
<path fill="none" stroke="midnightblue" d="M303.18,-49.47C323.03,-44.29 345.44,-38.45 366,-33.09"/>
<polygon fill="midnightblue" stroke="midnightblue" points="367.13,-36.42 375.93,-30.51 365.37,-29.64 367.13,-36.42"/>
</g>
</g>
</svg>
