<?xml version="1.0" encoding="UTF-8" standalone="no"?>
<!DOCTYPE svg PUBLIC "-//W3C//DTD SVG 1.1//EN"
 "http://www.w3.org/Graphics/SVG/1.1/DTD/svg11.dtd">
<!-- Generated by graphviz version 2.43.0 (0)
 -->
<!-- Title: ccpr_dust_mod::ccpr_dust_run Pages: 1 -->
<svg width="672pt" height="421pt"
 viewBox="0.00 0.00 672.00 420.50" xmlns="http://www.w3.org/2000/svg" xmlns:xlink="http://www.w3.org/1999/xlink">
<g id="graph0" class="graph" transform="scale(1 1) rotate(0) translate(4 416.5)">
<title>ccpr_dust_mod::ccpr_dust_run</title>
<polygon fill="white" stroke="transparent" points="-4,4 -4,-416.5 668,-416.5 668,4 -4,4"/>
<!-- Node1 -->
<g id="node1" class="node">
<title>Node1</title>
<g id="a_node1"><a xlink:title="Run the dust scheme.">
<polygon fill="#bfbfbf" stroke="black" points="0,-196.5 0,-226.5 116,-226.5 116,-196.5 0,-196.5"/>
<text text-anchor="start" x="8" y="-214.5" font-family="Helvetica,sans-Serif" font-size="10.00">ccpr_dust_mod::ccpr</text>
<text text-anchor="middle" x="58" y="-203.5" font-family="Helvetica,sans-Serif" font-size="10.00">_dust_run</text>
</a>
</g>
</g>
<!-- Node2 -->
<g id="node2" class="node">
<title>Node2</title>
<g id="a_node2"><a xlink:href="group__core__modules.html#ga51caf927c8403a431dd55956762ad350" target="_top" xlink:title="CC_Error.">
<polygon fill="white" stroke="black" points="175,-319 175,-338 287,-338 287,-319 175,-319"/>
<text text-anchor="middle" x="231" y="-326" font-family="Helvetica,sans-Serif" font-size="10.00">error_mod::cc_error</text>
</a>
</g>
</g>
<!-- Node1&#45;&gt;Node2 -->
<g id="edge1" class="edge">
<title>Node1&#45;&gt;Node2</title>
<path fill="none" stroke="midnightblue" d="M81.01,-226.56C113.66,-248.9 174.61,-290.6 207.53,-313.12"/>
<polygon fill="midnightblue" stroke="midnightblue" points="205.79,-316.18 216.02,-318.94 209.75,-310.4 205.79,-316.18"/>
</g>
<!-- Node5 -->
<g id="node5" class="node">
<title>Node5</title>
<g id="a_node5"><a xlink:href="group__catchem__dust__process.html#ga67dc6e808171e1508b62207056894363" target="_top" xlink:title="This is the FENGSHA dust emission scheme developed at NOAA Air Resources Laboratory.">
<polygon fill="white" stroke="black" points="152,-196.5 152,-226.5 310,-226.5 310,-196.5 152,-196.5"/>
<text text-anchor="start" x="160" y="-214.5" font-family="Helvetica,sans-Serif" font-size="10.00">ccpr_scheme_fengsha</text>
<text text-anchor="middle" x="231" y="-203.5" font-family="Helvetica,sans-Serif" font-size="10.00">_mod::ccpr_scheme_fengsha</text>
</a>
</g>
</g>
<!-- Node1&#45;&gt;Node5 -->
<g id="edge4" class="edge">
<title>Node1&#45;&gt;Node5</title>
<path fill="none" stroke="midnightblue" d="M116.42,-211.5C124.58,-211.5 133.12,-211.5 141.7,-211.5"/>
<polygon fill="midnightblue" stroke="midnightblue" points="141.77,-215 151.77,-211.5 141.77,-208 141.77,-215"/>
</g>
<!-- Node13 -->
<g id="node13" class="node">
<title>Node13</title>
<g id="a_node13"><a xlink:href="group__catchem__dust__process.html#ga59077062b16e4d19eb9829c79f5890cf" target="_top" xlink:title="Calculates the dust emission flux in ug m&#45;2 s&#45;1.">
<polygon fill="white" stroke="black" points="155,-74.5 155,-104.5 307,-104.5 307,-74.5 155,-74.5"/>
<text text-anchor="start" x="163" y="-92.5" font-family="Helvetica,sans-Serif" font-size="10.00">ccpr_scheme_ginoux</text>
<text text-anchor="middle" x="231" y="-81.5" font-family="Helvetica,sans-Serif" font-size="10.00">_mod::ccpr_scheme_ginoux</text>
</a>
</g>
</g>
<!-- Node1&#45;&gt;Node13 -->
<g id="edge12" class="edge">
<title>Node1&#45;&gt;Node13</title>
<path fill="none" stroke="midnightblue" d="M80.31,-196.3C110.68,-174.63 166.53,-134.79 200.75,-110.37"/>
<polygon fill="midnightblue" stroke="midnightblue" points="202.85,-113.17 208.96,-104.51 198.78,-107.47 202.85,-113.17"/>
</g>
<!-- Node3 -->
<g id="node3" class="node">
<title>Node3</title>
<g id="a_node3"><a xlink:href="group__core__modules.html#ga3890886a8d25cb4253fe2706c44e6e78" target="_top" xlink:title="Print a string in multiple lines.">
<polygon fill="white" stroke="black" points="346,-393 346,-412 505,-412 505,-393 346,-393"/>
<text text-anchor="middle" x="425.5" y="-400" font-family="Helvetica,sans-Serif" font-size="10.00">charpak_mod::wordwrapprint</text>
</a>
</g>
</g>
<!-- Node2&#45;&gt;Node3 -->
<g id="edge2" class="edge">
<title>Node2&#45;&gt;Node3</title>
<path fill="none" stroke="midnightblue" d="M248.89,-338.06C270.73,-350.08 310.2,-370.7 346,-383.5 353.07,-386.03 360.61,-388.33 368.13,-390.39"/>
<polygon fill="midnightblue" stroke="midnightblue" points="367.38,-393.81 377.94,-392.96 369.15,-387.04 367.38,-393.81"/>
</g>
<!-- Node4 -->
<g id="node4" class="node">
<title>Node4</title>
<g id="a_node4"><a xlink:href="group__core__modules.html#ga36b722fb300c543f0eb910116bb28973" target="_top" xlink:title="Count the number of times a character appears in a string.">
<polygon fill="white" stroke="black" points="541,-393 541,-412 664,-412 664,-393 541,-393"/>
<text text-anchor="middle" x="602.5" y="-400" font-family="Helvetica,sans-Serif" font-size="10.00">charpak_mod::cntmat</text>
</a>
</g>
</g>
<!-- Node3&#45;&gt;Node4 -->
<g id="edge3" class="edge">
<title>Node3&#45;&gt;Node4</title>
<path fill="none" stroke="midnightblue" d="M505.04,-402.5C513.57,-402.5 522.21,-402.5 530.64,-402.5"/>
<polygon fill="midnightblue" stroke="midnightblue" points="530.79,-406 540.79,-402.5 530.79,-399 530.79,-406"/>
</g>
<!-- Node6 -->
<g id="node6" class="node">
<title>Node6</title>
<g id="a_node6"><a xlink:href="group__catchem__dust__process.html#gadd3264685e064288275b0d8e6c00037f" target="_top" xlink:title="Computes Draxler Hoirizontal Flux.">
<polygon fill="white" stroke="black" points="356.5,-343.5 356.5,-373.5 494.5,-373.5 494.5,-343.5 356.5,-343.5"/>
<text text-anchor="start" x="364.5" y="-361.5" font-family="Helvetica,sans-Serif" font-size="10.00">ccpr_dust_common_mod</text>
<text text-anchor="middle" x="425.5" y="-350.5" font-family="Helvetica,sans-Serif" font-size="10.00">::draxler_horizflux</text>
</a>
</g>
</g>
<!-- Node5&#45;&gt;Node6 -->
<g id="edge5" class="edge">
<title>Node5&#45;&gt;Node6</title>
<path fill="none" stroke="midnightblue" d="M242.04,-226.77C259.88,-252.72 299.62,-305.42 346,-334.5 348.63,-336.15 351.38,-337.69 354.22,-339.14"/>
<polygon fill="midnightblue" stroke="midnightblue" points="352.95,-342.4 363.5,-343.41 355.88,-336.05 352.95,-342.4"/>
</g>
<!-- Node7 -->
<g id="node7" class="node">
<title>Node7</title>
<g id="a_node7"><a xlink:href="group__catchem__dust__process.html#ga68df8ef7e173610a8570dc03b06f5ec1" target="_top" xlink:title="Computes the soil moisture attenuation factor for dust emission.">
<polygon fill="white" stroke="black" points="356.5,-294.5 356.5,-324.5 494.5,-324.5 494.5,-294.5 356.5,-294.5"/>
<text text-anchor="start" x="364.5" y="-312.5" font-family="Helvetica,sans-Serif" font-size="10.00">ccpr_dust_common_mod</text>
<text text-anchor="middle" x="425.5" y="-301.5" font-family="Helvetica,sans-Serif" font-size="10.00">::fecan_soilmoisture</text>
</a>
</g>
</g>
<!-- Node5&#45;&gt;Node7 -->
<g id="edge6" class="edge">
<title>Node5&#45;&gt;Node7</title>
<path fill="none" stroke="midnightblue" d="M251.6,-226.67C273.56,-243.06 310.71,-269.05 346,-285.5 350.11,-287.41 354.4,-289.22 358.78,-290.92"/>
<polygon fill="midnightblue" stroke="midnightblue" points="357.86,-294.31 368.45,-294.47 360.27,-287.74 357.86,-294.31"/>
</g>
<!-- Node8 -->
<g id="node8" class="node">
<title>Node8</title>
<g id="a_node8"><a xlink:href="group__catchem__dust__process.html#ga852341e0d9876a7c2a3a653e5036ea46" target="_top" xlink:title="Computes Kawamura Hoirizontal Flux.">
<polygon fill="white" stroke="black" points="356.5,-245.5 356.5,-275.5 494.5,-275.5 494.5,-245.5 356.5,-245.5"/>
<text text-anchor="start" x="364.5" y="-263.5" font-family="Helvetica,sans-Serif" font-size="10.00">ccpr_dust_common_mod</text>
<text text-anchor="middle" x="425.5" y="-252.5" font-family="Helvetica,sans-Serif" font-size="10.00">::kawamura_horizflux</text>
</a>
</g>
</g>
<!-- Node5&#45;&gt;Node8 -->
<g id="edge7" class="edge">
<title>Node5&#45;&gt;Node8</title>
<path fill="none" stroke="midnightblue" d="M291.06,-226.53C311.48,-231.73 334.54,-237.6 355.67,-242.98"/>
<polygon fill="midnightblue" stroke="midnightblue" points="354.99,-246.42 365.55,-245.49 356.72,-239.64 354.99,-246.42"/>
</g>
<!-- Node9 -->
<g id="node9" class="node">
<title>Node9</title>
<g id="a_node9"><a xlink:href="group__catchem__dust__process.html#gac1050e21be1dd102128fd53670dff630" target="_top" xlink:title="KokDistribution.">
<polygon fill="white" stroke="black" points="356.5,-196.5 356.5,-226.5 494.5,-226.5 494.5,-196.5 356.5,-196.5"/>
<text text-anchor="start" x="364.5" y="-214.5" font-family="Helvetica,sans-Serif" font-size="10.00">ccpr_dust_common_mod</text>
<text text-anchor="middle" x="425.5" y="-203.5" font-family="Helvetica,sans-Serif" font-size="10.00">::kokdistribution</text>
</a>
</g>
</g>
<!-- Node5&#45;&gt;Node9 -->
<g id="edge8" class="edge">
<title>Node5&#45;&gt;Node9</title>
<path fill="none" stroke="midnightblue" d="M310.02,-211.5C321.87,-211.5 334.1,-211.5 345.96,-211.5"/>
<polygon fill="midnightblue" stroke="midnightblue" points="346.27,-215 356.27,-211.5 346.27,-208 346.27,-215"/>
</g>
<!-- Node10 -->
<g id="node10" class="node">
<title>Node10</title>
<g id="a_node10"><a xlink:href="group__catchem__dust__process.html#ga5fafbb4ea27c7b29911094fa8f2b157f" target="_top" xlink:title="Computes the Drag Partition from MB95.">
<polygon fill="white" stroke="black" points="356.5,-147.5 356.5,-177.5 494.5,-177.5 494.5,-147.5 356.5,-147.5"/>
<text text-anchor="start" x="364.5" y="-165.5" font-family="Helvetica,sans-Serif" font-size="10.00">ccpr_dust_common_mod</text>
<text text-anchor="middle" x="425.5" y="-154.5" font-family="Helvetica,sans-Serif" font-size="10.00">::mb95_dragpartition</text>
</a>
</g>
</g>
<!-- Node5&#45;&gt;Node10 -->
<g id="edge9" class="edge">
<title>Node5&#45;&gt;Node10</title>
<path fill="none" stroke="midnightblue" d="M291.06,-196.47C311.48,-191.27 334.54,-185.4 355.67,-180.02"/>
<polygon fill="midnightblue" stroke="midnightblue" points="356.72,-183.36 365.55,-177.51 354.99,-176.58 356.72,-183.36"/>
</g>
<!-- Node11 -->
<g id="node11" class="node">
<title>Node11</title>
<g id="a_node11"><a xlink:href="group__catchem__dust__process.html#ga98e5900d9bfa60f94bbb661f30f7567b" target="_top" xlink:title="Computes the soil moisture attenuation factor for dust emission.">
<polygon fill="white" stroke="black" points="356.5,-98.5 356.5,-128.5 494.5,-128.5 494.5,-98.5 356.5,-98.5"/>
<text text-anchor="start" x="364.5" y="-116.5" font-family="Helvetica,sans-Serif" font-size="10.00">ccpr_dust_common_mod</text>
<text text-anchor="middle" x="425.5" y="-105.5" font-family="Helvetica,sans-Serif" font-size="10.00">::shao_soilmoisture</text>
</a>
</g>
</g>
<!-- Node5&#45;&gt;Node11 -->
<g id="edge10" class="edge">
<title>Node5&#45;&gt;Node11</title>
<path fill="none" stroke="midnightblue" d="M252.07,-196.34C274.14,-180.23 311.11,-154.88 346,-138.5 350.86,-136.22 355.97,-134.07 361.17,-132.07"/>
<polygon fill="midnightblue" stroke="midnightblue" points="362.4,-135.34 370.58,-128.61 359.98,-128.77 362.4,-135.34"/>
</g>
<!-- Node12 -->
<g id="node12" class="node">
<title>Node12</title>
<g id="a_node12"><a xlink:href="group__catchem__dust__process.html#ga86799789075704c8682e43e376519182" target="_top" xlink:title="Computes the soil erosion potential.">
<polygon fill="white" stroke="black" points="356.5,-49.5 356.5,-79.5 494.5,-79.5 494.5,-49.5 356.5,-49.5"/>
<text text-anchor="start" x="364.5" y="-67.5" font-family="Helvetica,sans-Serif" font-size="10.00">ccpr_dust_common_mod</text>
<text text-anchor="middle" x="425.5" y="-56.5" font-family="Helvetica,sans-Serif" font-size="10.00">::soil_erosion_potential</text>
</a>
</g>
</g>
<!-- Node5&#45;&gt;Node12 -->
<g id="edge11" class="edge">
<title>Node5&#45;&gt;Node12</title>
<path fill="none" stroke="midnightblue" d="M242.11,-196.41C260.05,-170.77 299.94,-118.62 346,-89.5 349.31,-87.41 352.8,-85.48 356.41,-83.7"/>
<polygon fill="midnightblue" stroke="midnightblue" points="357.87,-86.88 365.56,-79.59 355,-80.5 357.87,-86.88"/>
</g>
<!-- Node14 -->
<g id="node14" class="node">
<title>Node14</title>
<g id="a_node14"><a xlink:href="group__catchem__dust__process.html#ga4500164b113bfafb04f34b3dbdbd5acb" target="_top" xlink:title="Computes the Threshold Friction Velocity from MB97.">
<polygon fill="white" stroke="black" points="352.5,-0.5 352.5,-30.5 498.5,-30.5 498.5,-0.5 352.5,-0.5"/>
<text text-anchor="start" x="360.5" y="-18.5" font-family="Helvetica,sans-Serif" font-size="10.00">ccpr_dust_common_mod</text>
<text text-anchor="middle" x="425.5" y="-7.5" font-family="Helvetica,sans-Serif" font-size="10.00">::mb97_threshold_velocity</text>
</a>
</g>
</g>
<!-- Node13&#45;&gt;Node14 -->
<g id="edge13" class="edge">
<title>Node13&#45;&gt;Node14</title>
<path fill="none" stroke="midnightblue" d="M263.53,-74.48C286.2,-63.98 317.63,-50.02 346,-39.5 351.39,-37.5 357.04,-35.54 362.72,-33.64"/>
<polygon fill="midnightblue" stroke="midnightblue" points="363.85,-36.96 372.28,-30.53 361.68,-30.3 363.85,-36.96"/>
</g>
</g>
</svg>
