<?xml version="1.0" encoding="UTF-8" standalone="no"?>
<!DOCTYPE svg PUBLIC "-//W3C//DTD SVG 1.1//EN"
 "http://www.w3.org/Graphics/SVG/1.1/DTD/svg11.dtd">
<!-- Generated by graphviz version 2.43.0 (0)
 -->
<!-- Title: config_mod::read_input_file Pages: 1 -->
<svg width="873pt" height="264pt"
 viewBox="0.00 0.00 873.00 263.50" xmlns="http://www.w3.org/2000/svg" xmlns:xlink="http://www.w3.org/1999/xlink">
<g id="graph0" class="graph" transform="scale(1 1) rotate(0) translate(4 259.5)">
<title>config_mod::read_input_file</title>
<polygon fill="white" stroke="transparent" points="-4,4 -4,-259.5 869,-259.5 869,4 -4,4"/>
<!-- Node1 -->
<g id="node1" class="node">
<title>Node1</title>
<g id="a_node1"><a xlink:title="Read the configuration file.">
<polygon fill="#bfbfbf" stroke="black" points="0,-118 0,-137 151,-137 151,-118 0,-118"/>
<text text-anchor="middle" x="75.5" y="-125" font-family="Helvetica,sans-Serif" font-size="10.00">config_mod::read_input_file</text>
</a>
</g>
</g>
<!-- Node2 -->
<g id="node2" class="node">
<title>Node2</title>
<g id="a_node2"><a xlink:href="group__core__modules.html#ga51caf927c8403a431dd55956762ad350" target="_top" xlink:title="CC_Error.">
<polygon fill="white" stroke="black" points="376,-124 376,-143 488,-143 488,-124 376,-124"/>
<text text-anchor="middle" x="432" y="-131" font-family="Helvetica,sans-Serif" font-size="10.00">error_mod::cc_error</text>
</a>
</g>
</g>
<!-- Node1&#45;&gt;Node2 -->
<g id="edge1" class="edge">
<title>Node1&#45;&gt;Node2</title>
<path fill="none" stroke="midnightblue" d="M92.64,-117.96C113.56,-106.19 151.57,-86.86 187,-79.5 244.44,-67.56 261.81,-66.43 319,-79.5 351.78,-86.99 386.13,-105.35 408,-118.59"/>
<polygon fill="midnightblue" stroke="midnightblue" points="406.23,-121.61 416.58,-123.9 409.92,-115.66 406.23,-121.61"/>
</g>
<!-- Node5 -->
<g id="node5" class="node">
<title>Node5</title>
<g id="a_node5"><a xlink:href="group__core__modules.html#gaabe8c8bd2f1a373967f7bc804aedb91e" target="_top" xlink:title="Process grid configuration.">
<polygon fill="white" stroke="black" points="187,-236 187,-255 319,-255 319,-236 187,-236"/>
<text text-anchor="middle" x="253" y="-243" font-family="Helvetica,sans-Serif" font-size="10.00">config_mod::config_grid</text>
</a>
</g>
</g>
<!-- Node1&#45;&gt;Node5 -->
<g id="edge4" class="edge">
<title>Node1&#45;&gt;Node5</title>
<path fill="none" stroke="midnightblue" d="M84.59,-137.22C101.54,-156.97 142.88,-201.97 187,-226.5 190.98,-228.71 195.24,-230.69 199.61,-232.46"/>
<polygon fill="midnightblue" stroke="midnightblue" points="198.69,-235.84 209.28,-235.98 201.09,-229.27 198.69,-235.84"/>
</g>
<!-- Node9 -->
<g id="node9" class="node">
<title>Node9</title>
<g id="a_node9"><a xlink:href="group__core__modules.html#ga971679020f0cb9ce171844bf2e435161" target="_top" xlink:title="Process dust configuration.">
<polygon fill="white" stroke="black" points="199,-186.5 199,-216.5 307,-216.5 307,-186.5 199,-186.5"/>
<text text-anchor="start" x="207" y="-204.5" font-family="Helvetica,sans-Serif" font-size="10.00">config_mod::config</text>
<text text-anchor="middle" x="253" y="-193.5" font-family="Helvetica,sans-Serif" font-size="10.00">_process_dust</text>
</a>
</g>
</g>
<!-- Node1&#45;&gt;Node9 -->
<g id="edge10" class="edge">
<title>Node1&#45;&gt;Node9</title>
<path fill="none" stroke="midnightblue" d="M96.68,-137.15C118.69,-147.56 155.05,-164.39 187,-177.5 191.36,-179.29 195.91,-181.09 200.49,-182.87"/>
<polygon fill="midnightblue" stroke="midnightblue" points="199.28,-186.15 209.87,-186.44 201.77,-179.61 199.28,-186.15"/>
</g>
<!-- Node10 -->
<g id="node10" class="node">
<title>Node10</title>
<g id="a_node10"><a xlink:href="group__core__modules.html#ga0705737c9e63a2419dc08d831e763b2a" target="_top" xlink:title="Process plumerise configuration.">
<polygon fill="white" stroke="black" points="196.5,-137.5 196.5,-167.5 309.5,-167.5 309.5,-137.5 196.5,-137.5"/>
<text text-anchor="start" x="204.5" y="-155.5" font-family="Helvetica,sans-Serif" font-size="10.00">config_mod::config</text>
<text text-anchor="middle" x="253" y="-144.5" font-family="Helvetica,sans-Serif" font-size="10.00">_process_plumerise</text>
</a>
</g>
</g>
<!-- Node1&#45;&gt;Node10 -->
<g id="edge13" class="edge">
<title>Node1&#45;&gt;Node10</title>
<path fill="none" stroke="midnightblue" d="M143.35,-137.02C157.46,-139.03 172.33,-141.15 186.39,-143.15"/>
<polygon fill="midnightblue" stroke="midnightblue" points="186.07,-146.64 196.47,-144.59 187.06,-139.71 186.07,-146.64"/>
</g>
<!-- Node11 -->
<g id="node11" class="node">
<title>Node11</title>
<g id="a_node11"><a xlink:href="group__core__modules.html#ga7e45fb82e702483a172a1485835f815e" target="_top" xlink:title="Process seasalt configuration.">
<polygon fill="white" stroke="black" points="199,-88.5 199,-118.5 307,-118.5 307,-88.5 199,-88.5"/>
<text text-anchor="start" x="207" y="-106.5" font-family="Helvetica,sans-Serif" font-size="10.00">config_mod::config</text>
<text text-anchor="middle" x="253" y="-95.5" font-family="Helvetica,sans-Serif" font-size="10.00">_process_seasalt</text>
</a>
</g>
</g>
<!-- Node1&#45;&gt;Node11 -->
<g id="edge16" class="edge">
<title>Node1&#45;&gt;Node11</title>
<path fill="none" stroke="midnightblue" d="M146.11,-117.98C160.28,-116.04 175.11,-114.01 189.04,-112.11"/>
<polygon fill="midnightblue" stroke="midnightblue" points="189.56,-115.57 198.99,-110.75 188.61,-108.64 189.56,-115.57"/>
</g>
<!-- Node12 -->
<g id="node12" class="node">
<title>Node12</title>
<g id="a_node12"><a xlink:href="group__core__modules.html#ga2828ce1f26410b947722ec54e1c6cbd0" target="_top" xlink:title="Process simulation configuration.">
<polygon fill="white" stroke="black" points="199,-0.5 199,-30.5 307,-30.5 307,-0.5 199,-0.5"/>
<text text-anchor="start" x="207" y="-18.5" font-family="Helvetica,sans-Serif" font-size="10.00">config_mod::config</text>
<text text-anchor="middle" x="253" y="-7.5" font-family="Helvetica,sans-Serif" font-size="10.00">_simulation</text>
</a>
</g>
</g>
<!-- Node1&#45;&gt;Node12 -->
<g id="edge19" class="edge">
<title>Node1&#45;&gt;Node12</title>
<path fill="none" stroke="midnightblue" d="M87.88,-117.81C107.33,-101.54 148.58,-68.29 187,-45.5 193.25,-41.79 200.03,-38.22 206.78,-34.9"/>
<polygon fill="midnightblue" stroke="midnightblue" points="208.38,-38.02 215.9,-30.56 205.37,-31.7 208.38,-38.02"/>
</g>
<!-- Node3 -->
<g id="node3" class="node">
<title>Node3</title>
<g id="a_node3"><a xlink:href="group__core__modules.html#ga3890886a8d25cb4253fe2706c44e6e78" target="_top" xlink:title="Print a string in multiple lines.">
<polygon fill="white" stroke="black" points="545,-124 545,-143 704,-143 704,-124 545,-124"/>
<text text-anchor="middle" x="624.5" y="-131" font-family="Helvetica,sans-Serif" font-size="10.00">charpak_mod::wordwrapprint</text>
</a>
</g>
</g>
<!-- Node2&#45;&gt;Node3 -->
<g id="edge2" class="edge">
<title>Node2&#45;&gt;Node3</title>
<path fill="none" stroke="midnightblue" d="M488.1,-133.5C502.61,-133.5 518.65,-133.5 534.45,-133.5"/>
<polygon fill="midnightblue" stroke="midnightblue" points="534.79,-137 544.79,-133.5 534.79,-130 534.79,-137"/>
</g>
<!-- Node4 -->
<g id="node4" class="node">
<title>Node4</title>
<g id="a_node4"><a xlink:href="group__core__modules.html#ga36b722fb300c543f0eb910116bb28973" target="_top" xlink:title="Count the number of times a character appears in a string.">
<polygon fill="white" stroke="black" points="741,-124 741,-143 864,-143 864,-124 741,-124"/>
<text text-anchor="middle" x="802.5" y="-131" font-family="Helvetica,sans-Serif" font-size="10.00">charpak_mod::cntmat</text>
</a>
</g>
</g>
<!-- Node3&#45;&gt;Node4 -->
<g id="edge3" class="edge">
<title>Node3&#45;&gt;Node4</title>
<path fill="none" stroke="midnightblue" d="M704.23,-133.5C713.05,-133.5 721.99,-133.5 730.7,-133.5"/>
<polygon fill="midnightblue" stroke="midnightblue" points="730.79,-137 740.79,-133.5 730.79,-130 730.79,-137"/>
</g>
<!-- Node5&#45;&gt;Node2 -->
<g id="edge5" class="edge">
<title>Node5&#45;&gt;Node2</title>
<path fill="none" stroke="midnightblue" d="M303.48,-235.9C309.08,-233.45 314.42,-230.37 319,-226.5 346.95,-202.9 326.6,-175.54 355,-152.5 358.54,-149.63 362.46,-147.18 366.59,-145.1"/>
<polygon fill="midnightblue" stroke="midnightblue" points="368.12,-148.25 375.93,-141.1 365.36,-141.82 368.12,-148.25"/>
</g>
<!-- Node6 -->
<g id="node6" class="node">
<title>Node6</title>
<g id="a_node6"><a xlink:href="group__core__modules.html#ga0ee5218b21cf850e303a4380e9ce220b" target="_top" xlink:title="Split a string into substrings.">
<polygon fill="white" stroke="black" points="371,-162 371,-181 493,-181 493,-162 371,-162"/>
<text text-anchor="middle" x="432" y="-169" font-family="Helvetica,sans-Serif" font-size="10.00">charpak_mod::strsplit</text>
</a>
</g>
</g>
<!-- Node5&#45;&gt;Node6 -->
<g id="edge6" class="edge">
<title>Node5&#45;&gt;Node6</title>
<path fill="none" stroke="midnightblue" d="M290.81,-235.94C300.11,-233.19 310.01,-229.99 319,-226.5 349.39,-214.7 382.76,-197.76 405.1,-185.81"/>
<polygon fill="midnightblue" stroke="midnightblue" points="406.82,-188.86 413.96,-181.02 403.49,-182.7 406.82,-188.86"/>
</g>
<!-- Node7 -->
<g id="node7" class="node">
<title>Node7</title>
<g id="a_node7"><a xlink:href="group__core__modules.html#ga1849bf292b78e7b221ebb9da47db21bb" target="_top" xlink:title="Extract text from a string.">
<polygon fill="white" stroke="black" points="565.5,-162 565.5,-181 683.5,-181 683.5,-162 565.5,-162"/>
<text text-anchor="middle" x="624.5" y="-169" font-family="Helvetica,sans-Serif" font-size="10.00">charpak_mod::txtext</text>
</a>
</g>
</g>
<!-- Node6&#45;&gt;Node7 -->
<g id="edge7" class="edge">
<title>Node6&#45;&gt;Node7</title>
<path fill="none" stroke="midnightblue" d="M493.01,-171.5C512.79,-171.5 534.93,-171.5 555.28,-171.5"/>
<polygon fill="midnightblue" stroke="midnightblue" points="555.42,-175 565.42,-171.5 555.42,-168 555.42,-175"/>
</g>
<!-- Node7&#45;&gt;Node4 -->
<g id="edge8" class="edge">
<title>Node7&#45;&gt;Node4</title>
<path fill="none" stroke="midnightblue" d="M669.91,-161.91C693.45,-156.83 722.56,-150.54 747.4,-145.18"/>
<polygon fill="midnightblue" stroke="midnightblue" points="748.37,-148.55 757.41,-143.02 746.89,-141.71 748.37,-148.55"/>
</g>
<!-- Node8 -->
<g id="node8" class="node">
<title>Node8</title>
<g id="a_node8"><a xlink:href="group__core__modules.html#gab3380e435c78f855e451be2b17e7cd9e" target="_top" xlink:title="Copy characters from one string to another.">
<polygon fill="white" stroke="black" points="740,-162 740,-181 865,-181 865,-162 740,-162"/>
<text text-anchor="middle" x="802.5" y="-169" font-family="Helvetica,sans-Serif" font-size="10.00">charpak_mod::copytxt</text>
</a>
</g>
</g>
<!-- Node7&#45;&gt;Node8 -->
<g id="edge9" class="edge">
<title>Node7&#45;&gt;Node8</title>
<path fill="none" stroke="midnightblue" d="M683.62,-171.5C698.26,-171.5 714.16,-171.5 729.4,-171.5"/>
<polygon fill="midnightblue" stroke="midnightblue" points="729.82,-175 739.82,-171.5 729.82,-168 729.82,-175"/>
</g>
<!-- Node9&#45;&gt;Node2 -->
<g id="edge11" class="edge">
<title>Node9&#45;&gt;Node2</title>
<path fill="none" stroke="midnightblue" d="M299.4,-186.42C306.09,-183.72 312.81,-180.72 319,-177.5 336.28,-168.5 337.26,-160.55 355,-152.5 360.4,-150.05 366.16,-147.89 372,-145.98"/>
<polygon fill="midnightblue" stroke="midnightblue" points="373.3,-149.24 381.86,-143.01 371.28,-142.54 373.3,-149.24"/>
</g>
<!-- Node9&#45;&gt;Node6 -->
<g id="edge12" class="edge">
<title>Node9&#45;&gt;Node6</title>
<path fill="none" stroke="midnightblue" d="M307.11,-192.5C325.23,-189.43 345.73,-185.95 364.76,-182.73"/>
<polygon fill="midnightblue" stroke="midnightblue" points="365.58,-186.14 374.86,-181.02 364.41,-179.24 365.58,-186.14"/>
</g>
<!-- Node10&#45;&gt;Node2 -->
<g id="edge14" class="edge">
<title>Node10&#45;&gt;Node2</title>
<path fill="none" stroke="midnightblue" d="M309.52,-146.54C327.4,-144.62 347.37,-142.48 365.88,-140.49"/>
<polygon fill="midnightblue" stroke="midnightblue" points="366.41,-143.95 375.98,-139.41 365.67,-136.99 366.41,-143.95"/>
</g>
<!-- Node10&#45;&gt;Node6 -->
<g id="edge15" class="edge">
<title>Node10&#45;&gt;Node6</title>
<path fill="none" stroke="midnightblue" d="M309.52,-158.46C325.64,-160.19 343.46,-162.1 360.38,-163.92"/>
<polygon fill="midnightblue" stroke="midnightblue" points="360.45,-167.45 370.77,-165.03 361.2,-160.49 360.45,-167.45"/>
</g>
<!-- Node11&#45;&gt;Node2 -->
<g id="edge17" class="edge">
<title>Node11&#45;&gt;Node2</title>
<path fill="none" stroke="midnightblue" d="M307.11,-112.5C325.58,-115.63 346.51,-119.18 365.84,-122.46"/>
<polygon fill="midnightblue" stroke="midnightblue" points="365.34,-125.92 375.78,-124.14 366.51,-119.02 365.34,-125.92"/>
</g>
<!-- Node11&#45;&gt;Node6 -->
<g id="edge18" class="edge">
<title>Node11&#45;&gt;Node6</title>
<path fill="none" stroke="midnightblue" d="M297.25,-118.59C304.63,-121.6 312.13,-124.94 319,-128.5 336.08,-137.34 337.41,-144.72 355,-152.5 360.5,-154.93 366.36,-157.09 372.3,-159"/>
<polygon fill="midnightblue" stroke="midnightblue" points="371.74,-162.48 382.33,-161.97 373.74,-155.77 371.74,-162.48"/>
</g>
<!-- Node12&#45;&gt;Node2 -->
<g id="edge20" class="edge">
<title>Node12&#45;&gt;Node2</title>
<path fill="none" stroke="midnightblue" d="M290.54,-30.55C300.04,-34.95 310.1,-40.05 319,-45.5 354.38,-67.15 391.48,-98.21 412.86,-117.05"/>
<polygon fill="midnightblue" stroke="midnightblue" points="410.7,-119.82 420.5,-123.86 415.36,-114.59 410.7,-119.82"/>
</g>
<!-- Node13 -->
<g id="node13" class="node">
<title>Node13</title>
<g id="a_node13"><a xlink:href="group__core__modules.html#ga8d60c3647e63fd86651663238721c7ba" target="_top" xlink:title="Convert a string to uppercase.">
<polygon fill="white" stroke="black" points="355,-6 355,-25 509,-25 509,-6 355,-6"/>
<text text-anchor="middle" x="432" y="-13" font-family="Helvetica,sans-Serif" font-size="10.00">charpak_mod::to_uppercase</text>
</a>
</g>
</g>
<!-- Node12&#45;&gt;Node13 -->
<g id="edge21" class="edge">
<title>Node12&#45;&gt;Node13</title>
<path fill="none" stroke="midnightblue" d="M307.11,-15.5C318.92,-15.5 331.74,-15.5 344.5,-15.5"/>
<polygon fill="midnightblue" stroke="midnightblue" points="344.7,-19 354.7,-15.5 344.7,-12 344.7,-19"/>
</g>
</g>
</svg>
