<?xml version="1.0" encoding="UTF-8" standalone="no"?>
<!DOCTYPE svg PUBLIC "-//W3C//DTD SVG 1.1//EN"
 "http://www.w3.org/Graphics/SVG/1.1/DTD/svg11.dtd">
<!-- Generated by graphviz version 2.43.0 (0)
 -->
<!-- Title: ccpr_scheme_geos12_mod::ccpr_scheme_geos12 Pages: 1 -->
<svg width="351pt" height="88pt"
 viewBox="0.00 0.00 351.00 88.00" xmlns="http://www.w3.org/2000/svg" xmlns:xlink="http://www.w3.org/1999/xlink">
<g id="graph0" class="graph" transform="scale(1 1) rotate(0) translate(4 84)">
<title>ccpr_scheme_geos12_mod::ccpr_scheme_geos12</title>
<polygon fill="white" stroke="transparent" points="-4,4 -4,-84 347,-84 347,4 -4,4"/>
<!-- Node1 -->
<g id="node1" class="node">
<title>Node1</title>
<g id="a_node1"><a xlink:title="Scheme GEOS2012 Sea Salt Emission scheme.">
<polygon fill="#bfbfbf" stroke="black" points="0,-24.5 0,-54.5 154,-54.5 154,-24.5 0,-24.5"/>
<text text-anchor="start" x="8" y="-42.5" font-family="Helvetica,sans-Serif" font-size="10.00">ccpr_scheme_geos12</text>
<text text-anchor="middle" x="77" y="-31.5" font-family="Helvetica,sans-Serif" font-size="10.00">_mod::ccpr_scheme_geos12</text>
</a>
</g>
</g>
<!-- Node2 -->
<g id="node2" class="node">
<title>Node2</title>
<g id="a_node2"><a xlink:href="group__catchem__seasalt__process.html#ga275eee2242132e3c0e6b39aeab71ab55" target="_top" xlink:title="Jeagle et al. 2012 SST correction.">
<polygon fill="white" stroke="black" points="195,-49.5 195,-79.5 338,-79.5 338,-49.5 195,-49.5"/>
<text text-anchor="start" x="203" y="-67.5" font-family="Helvetica,sans-Serif" font-size="10.00">ccpr_seasalt_common</text>
<text text-anchor="middle" x="266.5" y="-56.5" font-family="Helvetica,sans-Serif" font-size="10.00">_mod::jeaglesstcorrection</text>
</a>
</g>
</g>
<!-- Node1&#45;&gt;Node2 -->
<g id="edge1" class="edge">
<title>Node1&#45;&gt;Node2</title>
<path fill="none" stroke="midnightblue" d="M154.26,-49.67C164.3,-51.01 174.62,-52.38 184.72,-53.73"/>
<polygon fill="midnightblue" stroke="midnightblue" points="184.37,-57.21 194.75,-55.07 185.3,-50.28 184.37,-57.21"/>
</g>
<!-- Node3 -->
<g id="node3" class="node">
<title>Node3</title>
<g id="a_node3"><a xlink:href="group__catchem__seasalt__process.html#gae88d813a03a04ba38a4bd900773d8064" target="_top" xlink:title="Function to compute sea salt emissions following the Gong style parameterization.">
<polygon fill="white" stroke="black" points="190,-0.5 190,-30.5 343,-30.5 343,-0.5 190,-0.5"/>
<text text-anchor="start" x="198" y="-18.5" font-family="Helvetica,sans-Serif" font-size="10.00">ccpr_seasalt_common</text>
<text text-anchor="middle" x="266.5" y="-7.5" font-family="Helvetica,sans-Serif" font-size="10.00">_mod::seasaltemissiongong</text>
</a>
</g>
</g>
<!-- Node1&#45;&gt;Node3 -->
<g id="edge2" class="edge">
<title>Node1&#45;&gt;Node3</title>
<path fill="none" stroke="midnightblue" d="M154.26,-29.74C162.72,-28.66 171.37,-27.55 179.92,-26.45"/>
<polygon fill="midnightblue" stroke="midnightblue" points="180.44,-29.92 189.91,-25.18 179.55,-22.97 180.44,-29.92"/>
</g>
</g>
</svg>
