<?xml version="1.0" encoding="UTF-8" standalone="no"?>
<!DOCTYPE svg PUBLIC "-//W3C//DTD SVG 1.1//EN"
 "http://www.w3.org/Graphics/SVG/1.1/DTD/svg11.dtd">
<!-- Generated by graphviz version 2.43.0 (0)
 -->
<!-- Title: chemstate_mod::getspecconcbyindex Pages: 1 -->
<svg width="711pt" height="28pt"
 viewBox="0.00 0.00 711.00 28.00" xmlns="http://www.w3.org/2000/svg" xmlns:xlink="http://www.w3.org/1999/xlink">
<g id="graph0" class="graph" transform="scale(1 1) rotate(0) translate(4 24)">
<title>chemstate_mod::getspecconcbyindex</title>
<polygon fill="white" stroke="transparent" points="-4,4 -4,-24 707,-24 707,4 -4,4"/>
<!-- Node1 -->
<g id="node1" class="node">
<title>Node1</title>
<g id="a_node1"><a xlink:title="Get the concentration of a species by index.">
<polygon fill="#bfbfbf" stroke="black" points="0,-0.5 0,-19.5 201,-19.5 201,-0.5 0,-0.5"/>
<text text-anchor="middle" x="100.5" y="-7.5" font-family="Helvetica,sans-Serif" font-size="10.00">chemstate_mod::getspecconcbyindex</text>
</a>
</g>
</g>
<!-- Node2 -->
<g id="node2" class="node">
<title>Node2</title>
<g id="a_node2"><a xlink:href="group__core__modules.html#ga51caf927c8403a431dd55956762ad350" target="_top" xlink:title="CC_Error.">
<polygon fill="white" stroke="black" points="237,-0.5 237,-19.5 349,-19.5 349,-0.5 237,-0.5"/>
<text text-anchor="middle" x="293" y="-7.5" font-family="Helvetica,sans-Serif" font-size="10.00">error_mod::cc_error</text>
</a>
</g>
</g>
<!-- Node1&#45;&gt;Node2 -->
<g id="edge1" class="edge">
<title>Node1&#45;&gt;Node2</title>
<path fill="none" stroke="midnightblue" d="M201.21,-10C209.82,-10 218.38,-10 226.61,-10"/>
<polygon fill="midnightblue" stroke="midnightblue" points="226.84,-13.5 236.84,-10 226.84,-6.5 226.84,-13.5"/>
</g>
<!-- Node3 -->
<g id="node3" class="node">
<title>Node3</title>
<g id="a_node3"><a xlink:href="group__core__modules.html#ga3890886a8d25cb4253fe2706c44e6e78" target="_top" xlink:title="Print a string in multiple lines.">
<polygon fill="white" stroke="black" points="385,-0.5 385,-19.5 544,-19.5 544,-0.5 385,-0.5"/>
<text text-anchor="middle" x="464.5" y="-7.5" font-family="Helvetica,sans-Serif" font-size="10.00">charpak_mod::wordwrapprint</text>
</a>
</g>
</g>
<!-- Node2&#45;&gt;Node3 -->
<g id="edge2" class="edge">
<title>Node2&#45;&gt;Node3</title>
<path fill="none" stroke="midnightblue" d="M349.03,-10C357.23,-10 365.85,-10 374.54,-10"/>
<polygon fill="midnightblue" stroke="midnightblue" points="374.73,-13.5 384.73,-10 374.73,-6.5 374.73,-13.5"/>
</g>
<!-- Node4 -->
<g id="node4" class="node">
<title>Node4</title>
<g id="a_node4"><a xlink:href="group__core__modules.html#ga36b722fb300c543f0eb910116bb28973" target="_top" xlink:title="Count the number of times a character appears in a string.">
<polygon fill="white" stroke="black" points="580,-0.5 580,-19.5 703,-19.5 703,-0.5 580,-0.5"/>
<text text-anchor="middle" x="641.5" y="-7.5" font-family="Helvetica,sans-Serif" font-size="10.00">charpak_mod::cntmat</text>
</a>
</g>
</g>
<!-- Node3&#45;&gt;Node4 -->
<g id="edge3" class="edge">
<title>Node3&#45;&gt;Node4</title>
<path fill="none" stroke="midnightblue" d="M544.04,-10C552.57,-10 561.21,-10 569.64,-10"/>
<polygon fill="midnightblue" stroke="midnightblue" points="569.79,-13.5 579.79,-10 569.79,-6.5 569.79,-13.5"/>
</g>
</g>
</svg>
