<?xml version="1.0" encoding="UTF-8" standalone="no"?>
<!DOCTYPE svg PUBLIC "-//W3C//DTD SVG 1.1//EN"
 "http://www.w3.org/Graphics/SVG/1.1/DTD/svg11.dtd">
<!-- Generated by graphviz version 2.43.0 (0)
 -->
<!-- Title: emisstate_mod::emis_find_chem_map_index Pages: 1 -->
<svg width="711pt" height="66pt"
 viewBox="0.00 0.00 711.00 66.00" xmlns="http://www.w3.org/2000/svg" xmlns:xlink="http://www.w3.org/1999/xlink">
<g id="graph0" class="graph" transform="scale(1 1) rotate(0) translate(4 62)">
<title>emisstate_mod::emis_find_chem_map_index</title>
<polygon fill="white" stroke="transparent" points="-4,4 -4,-62 707,-62 707,4 -4,4"/>
<!-- Node1 -->
<g id="node1" class="node">
<title>Node1</title>
<g id="a_node1"><a xlink:title="Find the index of the mapped species.">
<polygon fill="#bfbfbf" stroke="black" points="0,-14 0,-44 131,-44 131,-14 0,-14"/>
<text text-anchor="start" x="8" y="-32" font-family="Helvetica,sans-Serif" font-size="10.00">emisstate_mod::emis</text>
<text text-anchor="middle" x="65.5" y="-21" font-family="Helvetica,sans-Serif" font-size="10.00">_find_chem_map_index</text>
</a>
</g>
</g>
<!-- Node2 -->
<g id="node2" class="node">
<title>Node2</title>
<g id="a_node2"><a xlink:href="group__core__modules.html#ga51caf927c8403a431dd55956762ad350" target="_top" xlink:title="CC_Error.">
<polygon fill="white" stroke="black" points="202,-38.5 202,-57.5 314,-57.5 314,-38.5 202,-38.5"/>
<text text-anchor="middle" x="258" y="-45.5" font-family="Helvetica,sans-Serif" font-size="10.00">error_mod::cc_error</text>
</a>
</g>
</g>
<!-- Node1&#45;&gt;Node2 -->
<g id="edge1" class="edge">
<title>Node1&#45;&gt;Node2</title>
<path fill="none" stroke="midnightblue" d="M131.26,-35.46C150.83,-37.41 172.31,-39.55 191.9,-41.51"/>
<polygon fill="midnightblue" stroke="midnightblue" points="191.65,-45 201.94,-42.51 192.34,-38.03 191.65,-45"/>
</g>
<!-- Node5 -->
<g id="node5" class="node">
<title>Node5</title>
<g id="a_node5"><a xlink:href="group__core__modules.html#ga486e3baceb107a718cd8c73e83c92f1b" target="_top" xlink:title="Find the species by name.">
<polygon fill="white" stroke="black" points="167,-0.5 167,-19.5 349,-19.5 349,-0.5 167,-0.5"/>
<text text-anchor="middle" x="258" y="-7.5" font-family="Helvetica,sans-Serif" font-size="10.00">chemstate_mod::findspecbyname</text>
</a>
</g>
</g>
<!-- Node1&#45;&gt;Node5 -->
<g id="edge4" class="edge">
<title>Node1&#45;&gt;Node5</title>
<path fill="none" stroke="midnightblue" d="M131.26,-22.54C139.48,-21.72 148.03,-20.87 156.65,-20.01"/>
<polygon fill="midnightblue" stroke="midnightblue" points="157.16,-23.48 166.77,-19 156.47,-16.51 157.16,-23.48"/>
</g>
<!-- Node3 -->
<g id="node3" class="node">
<title>Node3</title>
<g id="a_node3"><a xlink:href="group__core__modules.html#ga3890886a8d25cb4253fe2706c44e6e78" target="_top" xlink:title="Print a string in multiple lines.">
<polygon fill="white" stroke="black" points="385,-38.5 385,-57.5 544,-57.5 544,-38.5 385,-38.5"/>
<text text-anchor="middle" x="464.5" y="-45.5" font-family="Helvetica,sans-Serif" font-size="10.00">charpak_mod::wordwrapprint</text>
</a>
</g>
</g>
<!-- Node2&#45;&gt;Node3 -->
<g id="edge2" class="edge">
<title>Node2&#45;&gt;Node3</title>
<path fill="none" stroke="midnightblue" d="M314.07,-48C332.78,-48 354.18,-48 374.83,-48"/>
<polygon fill="midnightblue" stroke="midnightblue" points="374.9,-51.5 384.9,-48 374.9,-44.5 374.9,-51.5"/>
</g>
<!-- Node4 -->
<g id="node4" class="node">
<title>Node4</title>
<g id="a_node4"><a xlink:href="group__core__modules.html#ga36b722fb300c543f0eb910116bb28973" target="_top" xlink:title="Count the number of times a character appears in a string.">
<polygon fill="white" stroke="black" points="580,-38.5 580,-57.5 703,-57.5 703,-38.5 580,-38.5"/>
<text text-anchor="middle" x="641.5" y="-45.5" font-family="Helvetica,sans-Serif" font-size="10.00">charpak_mod::cntmat</text>
</a>
</g>
</g>
<!-- Node3&#45;&gt;Node4 -->
<g id="edge3" class="edge">
<title>Node3&#45;&gt;Node4</title>
<path fill="none" stroke="midnightblue" d="M544.04,-48C552.57,-48 561.21,-48 569.64,-48"/>
<polygon fill="midnightblue" stroke="midnightblue" points="569.79,-51.5 579.79,-48 569.79,-44.5 569.79,-51.5"/>
</g>
</g>
</svg>
