<?xml version="1.0" encoding="UTF-8" standalone="no"?>
<!DOCTYPE svg PUBLIC "-//W3C//DTD SVG 1.1//EN"
 "http://www.w3.org/Graphics/SVG/1.1/DTD/svg11.dtd">
<!-- Generated by graphviz version 2.43.0 (0)
 -->
<!-- Title: ccpr_scheme_fengsha_mod::ccpr_scheme_fengsha Pages: 1 -->
<svg width="340pt" height="333pt"
 viewBox="0.00 0.00 340.00 333.00" xmlns="http://www.w3.org/2000/svg" xmlns:xlink="http://www.w3.org/1999/xlink">
<g id="graph0" class="graph" transform="scale(1 1) rotate(0) translate(4 329)">
<title>ccpr_scheme_fengsha_mod::ccpr_scheme_fengsha</title>
<polygon fill="white" stroke="transparent" points="-4,4 -4,-329 336,-329 336,4 -4,4"/>
<!-- Node1 -->
<g id="node1" class="node">
<title>Node1</title>
<g id="a_node1"><a xlink:title="This is the FENGSHA dust emission scheme developed at NOAA Air Resources Laboratory.">
<polygon fill="#bfbfbf" stroke="black" points="0,-147.5 0,-177.5 158,-177.5 158,-147.5 0,-147.5"/>
<text text-anchor="start" x="8" y="-165.5" font-family="Helvetica,sans-Serif" font-size="10.00">ccpr_scheme_fengsha</text>
<text text-anchor="middle" x="79" y="-154.5" font-family="Helvetica,sans-Serif" font-size="10.00">_mod::ccpr_scheme_fengsha</text>
</a>
</g>
</g>
<!-- Node2 -->
<g id="node2" class="node">
<title>Node2</title>
<g id="a_node2"><a xlink:href="group__catchem__dust__process.html#gadd3264685e064288275b0d8e6c00037f" target="_top" xlink:title="Computes Draxler Hoirizontal Flux.">
<polygon fill="white" stroke="black" points="194,-294.5 194,-324.5 332,-324.5 332,-294.5 194,-294.5"/>
<text text-anchor="start" x="202" y="-312.5" font-family="Helvetica,sans-Serif" font-size="10.00">ccpr_dust_common_mod</text>
<text text-anchor="middle" x="263" y="-301.5" font-family="Helvetica,sans-Serif" font-size="10.00">::draxler_horizflux</text>
</a>
</g>
</g>
<!-- Node1&#45;&gt;Node2 -->
<g id="edge1" class="edge">
<title>Node1&#45;&gt;Node2</title>
<path fill="none" stroke="midnightblue" d="M90.17,-177.56C108.22,-203.2 148.25,-255.44 194,-285.5 196.4,-287.08 198.92,-288.57 201.52,-289.97"/>
<polygon fill="midnightblue" stroke="midnightblue" points="200.06,-293.15 210.58,-294.41 203.14,-286.87 200.06,-293.15"/>
</g>
<!-- Node3 -->
<g id="node3" class="node">
<title>Node3</title>
<g id="a_node3"><a xlink:href="group__catchem__dust__process.html#ga68df8ef7e173610a8570dc03b06f5ec1" target="_top" xlink:title="Computes the soil moisture attenuation factor for dust emission.">
<polygon fill="white" stroke="black" points="194,-245.5 194,-275.5 332,-275.5 332,-245.5 194,-245.5"/>
<text text-anchor="start" x="202" y="-263.5" font-family="Helvetica,sans-Serif" font-size="10.00">ccpr_dust_common_mod</text>
<text text-anchor="middle" x="263" y="-252.5" font-family="Helvetica,sans-Serif" font-size="10.00">::fecan_soilmoisture</text>
</a>
</g>
</g>
<!-- Node1&#45;&gt;Node3 -->
<g id="edge2" class="edge">
<title>Node1&#45;&gt;Node3</title>
<path fill="none" stroke="midnightblue" d="M100.14,-177.68C122.26,-193.84 159.28,-219.41 194,-236.5 197.56,-238.25 201.29,-239.94 205.08,-241.55"/>
<polygon fill="midnightblue" stroke="midnightblue" points="204,-244.89 214.58,-245.39 206.62,-238.4 204,-244.89"/>
</g>
<!-- Node4 -->
<g id="node4" class="node">
<title>Node4</title>
<g id="a_node4"><a xlink:href="group__catchem__dust__process.html#ga852341e0d9876a7c2a3a653e5036ea46" target="_top" xlink:title="Computes Kawamura Hoirizontal Flux.">
<polygon fill="white" stroke="black" points="194,-196.5 194,-226.5 332,-226.5 332,-196.5 194,-196.5"/>
<text text-anchor="start" x="202" y="-214.5" font-family="Helvetica,sans-Serif" font-size="10.00">ccpr_dust_common_mod</text>
<text text-anchor="middle" x="263" y="-203.5" font-family="Helvetica,sans-Serif" font-size="10.00">::kawamura_horizflux</text>
</a>
</g>
</g>
<!-- Node1&#45;&gt;Node4 -->
<g id="edge3" class="edge">
<title>Node1&#45;&gt;Node4</title>
<path fill="none" stroke="midnightblue" d="M136.09,-177.6C155.12,-182.73 176.56,-188.5 196.27,-193.8"/>
<polygon fill="midnightblue" stroke="midnightblue" points="195.53,-197.23 206.09,-196.45 197.35,-190.47 195.53,-197.23"/>
</g>
<!-- Node5 -->
<g id="node5" class="node">
<title>Node5</title>
<g id="a_node5"><a xlink:href="group__catchem__dust__process.html#gac1050e21be1dd102128fd53670dff630" target="_top" xlink:title="KokDistribution.">
<polygon fill="white" stroke="black" points="194,-147.5 194,-177.5 332,-177.5 332,-147.5 194,-147.5"/>
<text text-anchor="start" x="202" y="-165.5" font-family="Helvetica,sans-Serif" font-size="10.00">ccpr_dust_common_mod</text>
<text text-anchor="middle" x="263" y="-154.5" font-family="Helvetica,sans-Serif" font-size="10.00">::kokdistribution</text>
</a>
</g>
</g>
<!-- Node1&#45;&gt;Node5 -->
<g id="edge4" class="edge">
<title>Node1&#45;&gt;Node5</title>
<path fill="none" stroke="midnightblue" d="M158.24,-162.5C166.67,-162.5 175.24,-162.5 183.67,-162.5"/>
<polygon fill="midnightblue" stroke="midnightblue" points="183.85,-166 193.85,-162.5 183.85,-159 183.85,-166"/>
</g>
<!-- Node6 -->
<g id="node6" class="node">
<title>Node6</title>
<g id="a_node6"><a xlink:href="group__catchem__dust__process.html#ga5fafbb4ea27c7b29911094fa8f2b157f" target="_top" xlink:title="Computes the Drag Partition from MB95.">
<polygon fill="white" stroke="black" points="194,-98.5 194,-128.5 332,-128.5 332,-98.5 194,-98.5"/>
<text text-anchor="start" x="202" y="-116.5" font-family="Helvetica,sans-Serif" font-size="10.00">ccpr_dust_common_mod</text>
<text text-anchor="middle" x="263" y="-105.5" font-family="Helvetica,sans-Serif" font-size="10.00">::mb95_dragpartition</text>
</a>
</g>
</g>
<!-- Node1&#45;&gt;Node6 -->
<g id="edge5" class="edge">
<title>Node1&#45;&gt;Node6</title>
<path fill="none" stroke="midnightblue" d="M136.09,-147.4C155.12,-142.27 176.56,-136.5 196.27,-131.2"/>
<polygon fill="midnightblue" stroke="midnightblue" points="197.35,-134.53 206.09,-128.55 195.53,-127.77 197.35,-134.53"/>
</g>
<!-- Node7 -->
<g id="node7" class="node">
<title>Node7</title>
<g id="a_node7"><a xlink:href="group__catchem__dust__process.html#ga98e5900d9bfa60f94bbb661f30f7567b" target="_top" xlink:title="Computes the soil moisture attenuation factor for dust emission.">
<polygon fill="white" stroke="black" points="194,-49.5 194,-79.5 332,-79.5 332,-49.5 194,-49.5"/>
<text text-anchor="start" x="202" y="-67.5" font-family="Helvetica,sans-Serif" font-size="10.00">ccpr_dust_common_mod</text>
<text text-anchor="middle" x="263" y="-56.5" font-family="Helvetica,sans-Serif" font-size="10.00">::shao_soilmoisture</text>
</a>
</g>
</g>
<!-- Node1&#45;&gt;Node7 -->
<g id="edge6" class="edge">
<title>Node1&#45;&gt;Node7</title>
<path fill="none" stroke="midnightblue" d="M100.62,-147.34C122.85,-131.47 159.69,-106.54 194,-89.5 198.28,-87.37 202.79,-85.33 207.36,-83.39"/>
<polygon fill="midnightblue" stroke="midnightblue" points="208.85,-86.56 216.79,-79.55 206.21,-80.08 208.85,-86.56"/>
</g>
<!-- Node8 -->
<g id="node8" class="node">
<title>Node8</title>
<g id="a_node8"><a xlink:href="group__catchem__dust__process.html#ga86799789075704c8682e43e376519182" target="_top" xlink:title="Computes the soil erosion potential.">
<polygon fill="white" stroke="black" points="194,-0.5 194,-30.5 332,-30.5 332,-0.5 194,-0.5"/>
<text text-anchor="start" x="202" y="-18.5" font-family="Helvetica,sans-Serif" font-size="10.00">ccpr_dust_common_mod</text>
<text text-anchor="middle" x="263" y="-7.5" font-family="Helvetica,sans-Serif" font-size="10.00">::soil_erosion_potential</text>
</a>
</g>
</g>
<!-- Node1&#45;&gt;Node8 -->
<g id="edge7" class="edge">
<title>Node1&#45;&gt;Node8</title>
<path fill="none" stroke="midnightblue" d="M90.54,-147.22C108.82,-121.75 148.83,-70.47 194,-40.5 196.92,-38.56 200.01,-36.75 203.19,-35.06"/>
<polygon fill="midnightblue" stroke="midnightblue" points="204.9,-38.13 212.37,-30.62 201.85,-31.83 204.9,-38.13"/>
</g>
</g>
</svg>
