<?xml version="1.0" encoding="UTF-8" standalone="no"?>
<!DOCTYPE svg PUBLIC "-//W3C//DTD SVG 1.1//EN"
 "http://www.w3.org/Graphics/SVG/1.1/DTD/svg11.dtd">
<!-- Generated by graphviz version 2.43.0 (0)
 -->
<!-- Title: ccpr_scheme_gong97_mod::ccpr_scheme_gong97 Pages: 1 -->
<svg width="352pt" height="137pt"
 viewBox="0.00 0.00 352.00 137.00" xmlns="http://www.w3.org/2000/svg" xmlns:xlink="http://www.w3.org/1999/xlink">
<g id="graph0" class="graph" transform="scale(1 1) rotate(0) translate(4 133)">
<title>ccpr_scheme_gong97_mod::ccpr_scheme_gong97</title>
<polygon fill="white" stroke="transparent" points="-4,4 -4,-133 348,-133 348,4 -4,4"/>
<!-- Node1 -->
<g id="node1" class="node">
<title>Node1</title>
<g id="a_node1"><a xlink:title="Run the Gong97 Sea Salt Emission scheme.">
<polygon fill="#bfbfbf" stroke="black" points="0,-49.5 0,-79.5 155,-79.5 155,-49.5 0,-49.5"/>
<text text-anchor="start" x="8" y="-67.5" font-family="Helvetica,sans-Serif" font-size="10.00">ccpr_scheme_gong97</text>
<text text-anchor="middle" x="77.5" y="-56.5" font-family="Helvetica,sans-Serif" font-size="10.00">_mod::ccpr_scheme_gong97</text>
</a>
</g>
</g>
<!-- Node2 -->
<g id="node2" class="node">
<title>Node2</title>
<g id="a_node2"><a xlink:href="group__catchem__seasalt__process.html#ga275eee2242132e3c0e6b39aeab71ab55" target="_top" xlink:title="Jeagle et al. 2012 SST correction.">
<polygon fill="white" stroke="black" points="196,-98.5 196,-128.5 339,-128.5 339,-98.5 196,-98.5"/>
<text text-anchor="start" x="204" y="-116.5" font-family="Helvetica,sans-Serif" font-size="10.00">ccpr_seasalt_common</text>
<text text-anchor="middle" x="267.5" y="-105.5" font-family="Helvetica,sans-Serif" font-size="10.00">_mod::jeaglesstcorrection</text>
</a>
</g>
</g>
<!-- Node1&#45;&gt;Node2 -->
<g id="edge1" class="edge">
<title>Node1&#45;&gt;Node2</title>
<path fill="none" stroke="midnightblue" d="M136.18,-79.53C156.03,-84.71 178.44,-90.55 199,-95.91"/>
<polygon fill="midnightblue" stroke="midnightblue" points="198.37,-99.36 208.93,-98.49 200.13,-92.58 198.37,-99.36"/>
</g>
<!-- Node3 -->
<g id="node3" class="node">
<title>Node3</title>
<g id="a_node3"><a xlink:href="group__catchem__seasalt__process.html#gae88d813a03a04ba38a4bd900773d8064" target="_top" xlink:title="Function to compute sea salt emissions following the Gong style parameterization.">
<polygon fill="white" stroke="black" points="191,-49.5 191,-79.5 344,-79.5 344,-49.5 191,-49.5"/>
<text text-anchor="start" x="199" y="-67.5" font-family="Helvetica,sans-Serif" font-size="10.00">ccpr_seasalt_common</text>
<text text-anchor="middle" x="267.5" y="-56.5" font-family="Helvetica,sans-Serif" font-size="10.00">_mod::seasaltemissiongong</text>
</a>
</g>
</g>
<!-- Node1&#45;&gt;Node3 -->
<g id="edge2" class="edge">
<title>Node1&#45;&gt;Node3</title>
<path fill="none" stroke="midnightblue" d="M155.24,-64.5C163.61,-64.5 172.17,-64.5 180.65,-64.5"/>
<polygon fill="midnightblue" stroke="midnightblue" points="180.92,-68 190.92,-64.5 180.92,-61 180.92,-68"/>
</g>
<!-- Node4 -->
<g id="node4" class="node">
<title>Node4</title>
<g id="a_node4"><a xlink:href="group__catchem__seasalt__process.html#gaf4e9c720d3143836adb1a5fcf0fe011f" target="_top" xlink:title="Calculate the weibull distribution for 10m wind speed (u10, v10)">
<polygon fill="white" stroke="black" points="197.5,-0.5 197.5,-30.5 337.5,-30.5 337.5,-0.5 197.5,-0.5"/>
<text text-anchor="start" x="205.5" y="-18.5" font-family="Helvetica,sans-Serif" font-size="10.00">ccpr_seasalt_common</text>
<text text-anchor="middle" x="267.5" y="-7.5" font-family="Helvetica,sans-Serif" font-size="10.00">_mod::weibulldistribution</text>
</a>
</g>
</g>
<!-- Node1&#45;&gt;Node4 -->
<g id="edge3" class="edge">
<title>Node1&#45;&gt;Node4</title>
<path fill="none" stroke="midnightblue" d="M136.18,-49.47C156.03,-44.29 178.44,-38.45 199,-33.09"/>
<polygon fill="midnightblue" stroke="midnightblue" points="200.13,-36.42 208.93,-30.51 198.37,-29.64 200.13,-36.42"/>
</g>
</g>
</svg>
