<?xml version="1.0" encoding="UTF-8" standalone="no"?>
<!DOCTYPE svg PUBLIC "-//W3C//DTD SVG 1.1//EN"
 "http://www.w3.org/Graphics/SVG/1.1/DTD/svg11.dtd">
<!-- Generated by graphviz version 2.43.0 (0)
 -->
<!-- Title: chemstate_mod::chem_allocate Pages: 1 -->
<svg width="807pt" height="53pt"
 viewBox="0.00 0.00 807.00 52.50" xmlns="http://www.w3.org/2000/svg" xmlns:xlink="http://www.w3.org/1999/xlink">
<g id="graph0" class="graph" transform="scale(1 1) rotate(0) translate(4 48.5)">
<title>chemstate_mod::chem_allocate</title>
<polygon fill="white" stroke="transparent" points="-4,4 -4,-48.5 803,-48.5 803,4 -4,4"/>
<!-- Node1 -->
<g id="node1" class="node">
<title>Node1</title>
<g id="a_node1"><a xlink:title="Allocate the chem state.">
<polygon fill="#bfbfbf" stroke="black" points="0,-0.5 0,-30.5 128,-30.5 128,-0.5 0,-0.5"/>
<text text-anchor="start" x="8" y="-18.5" font-family="Helvetica,sans-Serif" font-size="10.00">chemstate_mod::chem</text>
<text text-anchor="middle" x="64" y="-7.5" font-family="Helvetica,sans-Serif" font-size="10.00">_allocate</text>
</a>
</g>
</g>
<!-- Node2 -->
<g id="node2" class="node">
<title>Node2</title>
<g id="a_node2"><a xlink:href="group__core__modules.html#ga9d9a1354b84c23bc24cd4db6a547d348" target="_top" xlink:title="CC_CheckVar.">
<polygon fill="white" stroke="black" points="164,-25 164,-44 297,-44 297,-25 164,-25"/>
<text text-anchor="middle" x="230.5" y="-32" font-family="Helvetica,sans-Serif" font-size="10.00">error_mod::cc_checkvar</text>
</a>
</g>
</g>
<!-- Node1&#45;&gt;Node2 -->
<g id="edge1" class="edge">
<title>Node1&#45;&gt;Node2</title>
<path fill="none" stroke="midnightblue" d="M128.13,-22.79C136.53,-23.76 145.21,-24.76 153.8,-25.76"/>
<polygon fill="midnightblue" stroke="midnightblue" points="153.48,-29.24 163.81,-26.91 154.28,-22.29 153.48,-29.24"/>
</g>
<!-- Node3 -->
<g id="node3" class="node">
<title>Node3</title>
<g id="a_node3"><a xlink:href="group__core__modules.html#ga51caf927c8403a431dd55956762ad350" target="_top" xlink:title="CC_Error.">
<polygon fill="white" stroke="black" points="333,-6 333,-25 445,-25 445,-6 333,-6"/>
<text text-anchor="middle" x="389" y="-13" font-family="Helvetica,sans-Serif" font-size="10.00">error_mod::cc_error</text>
</a>
</g>
</g>
<!-- Node1&#45;&gt;Node3 -->
<g id="edge5" class="edge">
<title>Node1&#45;&gt;Node3</title>
<path fill="none" stroke="midnightblue" d="M128.04,-15.5C184.13,-15.5 265.83,-15.5 322.61,-15.5"/>
<polygon fill="midnightblue" stroke="midnightblue" points="322.92,-19 332.92,-15.5 322.92,-12 322.92,-19"/>
</g>
<!-- Node2&#45;&gt;Node3 -->
<g id="edge2" class="edge">
<title>Node2&#45;&gt;Node3</title>
<path fill="none" stroke="midnightblue" d="M297.42,-26.5C305.73,-25.49 314.24,-24.46 322.54,-23.45"/>
<polygon fill="midnightblue" stroke="midnightblue" points="323.05,-26.91 332.55,-22.23 322.2,-19.96 323.05,-26.91"/>
</g>
<!-- Node4 -->
<g id="node4" class="node">
<title>Node4</title>
<g id="a_node4"><a xlink:href="group__core__modules.html#ga3890886a8d25cb4253fe2706c44e6e78" target="_top" xlink:title="Print a string in multiple lines.">
<polygon fill="white" stroke="black" points="481,-6 481,-25 640,-25 640,-6 481,-6"/>
<text text-anchor="middle" x="560.5" y="-13" font-family="Helvetica,sans-Serif" font-size="10.00">charpak_mod::wordwrapprint</text>
</a>
</g>
</g>
<!-- Node3&#45;&gt;Node4 -->
<g id="edge3" class="edge">
<title>Node3&#45;&gt;Node4</title>
<path fill="none" stroke="midnightblue" d="M445.03,-15.5C453.23,-15.5 461.85,-15.5 470.54,-15.5"/>
<polygon fill="midnightblue" stroke="midnightblue" points="470.73,-19 480.73,-15.5 470.73,-12 470.73,-19"/>
</g>
<!-- Node5 -->
<g id="node5" class="node">
<title>Node5</title>
<g id="a_node5"><a xlink:href="group__core__modules.html#ga36b722fb300c543f0eb910116bb28973" target="_top" xlink:title="Count the number of times a character appears in a string.">
<polygon fill="white" stroke="black" points="676,-6 676,-25 799,-25 799,-6 676,-6"/>
<text text-anchor="middle" x="737.5" y="-13" font-family="Helvetica,sans-Serif" font-size="10.00">charpak_mod::cntmat</text>
</a>
</g>
</g>
<!-- Node4&#45;&gt;Node5 -->
<g id="edge4" class="edge">
<title>Node4&#45;&gt;Node5</title>
<path fill="none" stroke="midnightblue" d="M640.04,-15.5C648.57,-15.5 657.21,-15.5 665.64,-15.5"/>
<polygon fill="midnightblue" stroke="midnightblue" points="665.79,-19 675.79,-15.5 665.79,-12 665.79,-19"/>
</g>
</g>
</svg>
