<?xml version="1.0" encoding="UTF-8" standalone="no"?>
<!DOCTYPE svg PUBLIC "-//W3C//DTD SVG 1.1//EN"
 "http://www.w3.org/Graphics/SVG/1.1/DTD/svg11.dtd">
<!-- Generated by graphviz version 2.43.0 (0)
 -->
<!-- Title: ccpr_scheme_ginoux_mod::ccpr_scheme_ginoux Pages: 1 -->
<svg width="342pt" height="39pt"
 viewBox="0.00 0.00 342.00 39.00" xmlns="http://www.w3.org/2000/svg" xmlns:xlink="http://www.w3.org/1999/xlink">
<g id="graph0" class="graph" transform="scale(1 1) rotate(0) translate(4 35)">
<title>ccpr_scheme_ginoux_mod::ccpr_scheme_ginoux</title>
<polygon fill="white" stroke="transparent" points="-4,4 -4,-35 338,-35 338,4 -4,4"/>
<!-- Node1 -->
<g id="node1" class="node">
<title>Node1</title>
<g id="a_node1"><a xlink:title="Calculates the dust emission flux in ug m&#45;2 s&#45;1.">
<polygon fill="#bfbfbf" stroke="black" points="0,-0.5 0,-30.5 152,-30.5 152,-0.5 0,-0.5"/>
<text text-anchor="start" x="8" y="-18.5" font-family="Helvetica,sans-Serif" font-size="10.00">ccpr_scheme_ginoux</text>
<text text-anchor="middle" x="76" y="-7.5" font-family="Helvetica,sans-Serif" font-size="10.00">_mod::ccpr_scheme_ginoux</text>
</a>
</g>
</g>
<!-- Node2 -->
<g id="node2" class="node">
<title>Node2</title>
<g id="a_node2"><a xlink:href="group__catchem__dust__process.html#ga4500164b113bfafb04f34b3dbdbd5acb" target="_top" xlink:title="Computes the Threshold Friction Velocity from MB97.">
<polygon fill="white" stroke="black" points="188,-0.5 188,-30.5 334,-30.5 334,-0.5 188,-0.5"/>
<text text-anchor="start" x="196" y="-18.5" font-family="Helvetica,sans-Serif" font-size="10.00">ccpr_dust_common_mod</text>
<text text-anchor="middle" x="261" y="-7.5" font-family="Helvetica,sans-Serif" font-size="10.00">::mb97_threshold_velocity</text>
</a>
</g>
</g>
<!-- Node1&#45;&gt;Node2 -->
<g id="edge1" class="edge">
<title>Node1&#45;&gt;Node2</title>
<path fill="none" stroke="midnightblue" d="M152.23,-15.5C160.57,-15.5 169.09,-15.5 177.52,-15.5"/>
<polygon fill="midnightblue" stroke="midnightblue" points="177.72,-19 187.72,-15.5 177.72,-12 177.72,-19"/>
</g>
</g>
</svg>
