<?xml version="1.0" encoding="UTF-8" standalone="no"?>
<!DOCTYPE svg PUBLIC "-//W3C//DTD SVG 1.1//EN"
 "http://www.w3.org/Graphics/SVG/1.1/DTD/svg11.dtd">
<!-- Generated by graphviz version 2.43.0 (0)
 -->
<!-- Title: config_mod::config_process_plumerise Pages: 1 -->
<svg width="635pt" height="66pt"
 viewBox="0.00 0.00 635.00 66.00" xmlns="http://www.w3.org/2000/svg" xmlns:xlink="http://www.w3.org/1999/xlink">
<g id="graph0" class="graph" transform="scale(1 1) rotate(0) translate(4 62)">
<title>config_mod::config_process_plumerise</title>
<polygon fill="white" stroke="transparent" points="-4,4 -4,-62 631,-62 631,4 -4,4"/>
<!-- Node1 -->
<g id="node1" class="node">
<title>Node1</title>
<g id="a_node1"><a xlink:title="Process plumerise configuration.">
<polygon fill="#bfbfbf" stroke="black" points="0,-14 0,-44 113,-44 113,-14 0,-14"/>
<text text-anchor="start" x="8" y="-32" font-family="Helvetica,sans-Serif" font-size="10.00">config_mod::config</text>
<text text-anchor="middle" x="56.5" y="-21" font-family="Helvetica,sans-Serif" font-size="10.00">_process_plumerise</text>
</a>
</g>
</g>
<!-- Node2 -->
<g id="node2" class="node">
<title>Node2</title>
<g id="a_node2"><a xlink:href="group__core__modules.html#ga51caf927c8403a431dd55956762ad350" target="_top" xlink:title="CC_Error.">
<polygon fill="white" stroke="black" points="154,-38.5 154,-57.5 266,-57.5 266,-38.5 154,-38.5"/>
<text text-anchor="middle" x="210" y="-45.5" font-family="Helvetica,sans-Serif" font-size="10.00">error_mod::cc_error</text>
</a>
</g>
</g>
<!-- Node1&#45;&gt;Node2 -->
<g id="edge1" class="edge">
<title>Node1&#45;&gt;Node2</title>
<path fill="none" stroke="midnightblue" d="M113.05,-35.97C123.06,-37.22 133.57,-38.54 143.83,-39.83"/>
<polygon fill="midnightblue" stroke="midnightblue" points="143.6,-43.33 153.96,-41.1 144.47,-36.38 143.6,-43.33"/>
</g>
<!-- Node5 -->
<g id="node5" class="node">
<title>Node5</title>
<g id="a_node5"><a xlink:href="group__core__modules.html#ga0ee5218b21cf850e303a4380e9ce220b" target="_top" xlink:title="Split a string into substrings.">
<polygon fill="white" stroke="black" points="149,-0.5 149,-19.5 271,-19.5 271,-0.5 149,-0.5"/>
<text text-anchor="middle" x="210" y="-7.5" font-family="Helvetica,sans-Serif" font-size="10.00">charpak_mod::strsplit</text>
</a>
</g>
</g>
<!-- Node1&#45;&gt;Node5 -->
<g id="edge4" class="edge">
<title>Node1&#45;&gt;Node5</title>
<path fill="none" stroke="midnightblue" d="M113.05,-22.03C121.43,-20.98 130.16,-19.89 138.8,-18.8"/>
<polygon fill="midnightblue" stroke="midnightblue" points="139.37,-22.26 148.86,-17.54 138.5,-15.31 139.37,-22.26"/>
</g>
<!-- Node3 -->
<g id="node3" class="node">
<title>Node3</title>
<g id="a_node3"><a xlink:href="group__core__modules.html#ga3890886a8d25cb4253fe2706c44e6e78" target="_top" xlink:title="Print a string in multiple lines.">
<polygon fill="white" stroke="black" points="307,-38.5 307,-57.5 466,-57.5 466,-38.5 307,-38.5"/>
<text text-anchor="middle" x="386.5" y="-45.5" font-family="Helvetica,sans-Serif" font-size="10.00">charpak_mod::wordwrapprint</text>
</a>
</g>
</g>
<!-- Node2&#45;&gt;Node3 -->
<g id="edge2" class="edge">
<title>Node2&#45;&gt;Node3</title>
<path fill="none" stroke="midnightblue" d="M266.21,-48C275.87,-48 286.14,-48 296.44,-48"/>
<polygon fill="midnightblue" stroke="midnightblue" points="296.74,-51.5 306.74,-48 296.74,-44.5 296.74,-51.5"/>
</g>
<!-- Node4 -->
<g id="node4" class="node">
<title>Node4</title>
<g id="a_node4"><a xlink:href="group__core__modules.html#ga36b722fb300c543f0eb910116bb28973" target="_top" xlink:title="Count the number of times a character appears in a string.">
<polygon fill="white" stroke="black" points="503,-38.5 503,-57.5 626,-57.5 626,-38.5 503,-38.5"/>
<text text-anchor="middle" x="564.5" y="-45.5" font-family="Helvetica,sans-Serif" font-size="10.00">charpak_mod::cntmat</text>
</a>
</g>
</g>
<!-- Node3&#45;&gt;Node4 -->
<g id="edge3" class="edge">
<title>Node3&#45;&gt;Node4</title>
<path fill="none" stroke="midnightblue" d="M466.23,-48C475.05,-48 483.99,-48 492.7,-48"/>
<polygon fill="midnightblue" stroke="midnightblue" points="492.79,-51.5 502.79,-48 492.79,-44.5 492.79,-51.5"/>
</g>
<!-- Node6 -->
<g id="node6" class="node">
<title>Node6</title>
<g id="a_node6"><a xlink:href="group__core__modules.html#ga1849bf292b78e7b221ebb9da47db21bb" target="_top" xlink:title="Extract text from a string.">
<polygon fill="white" stroke="black" points="327.5,-0.5 327.5,-19.5 445.5,-19.5 445.5,-0.5 327.5,-0.5"/>
<text text-anchor="middle" x="386.5" y="-7.5" font-family="Helvetica,sans-Serif" font-size="10.00">charpak_mod::txtext</text>
</a>
</g>
</g>
<!-- Node5&#45;&gt;Node6 -->
<g id="edge5" class="edge">
<title>Node5&#45;&gt;Node6</title>
<path fill="none" stroke="midnightblue" d="M271.05,-10C285.87,-10 301.85,-10 317.04,-10"/>
<polygon fill="midnightblue" stroke="midnightblue" points="317.4,-13.5 327.4,-10 317.4,-6.5 317.4,-13.5"/>
</g>
<!-- Node6&#45;&gt;Node4 -->
<g id="edge6" class="edge">
<title>Node6&#45;&gt;Node4</title>
<path fill="none" stroke="midnightblue" d="M431.91,-19.59C455.45,-24.67 484.56,-30.96 509.4,-36.32"/>
<polygon fill="midnightblue" stroke="midnightblue" points="508.89,-39.79 519.41,-38.48 510.37,-32.95 508.89,-39.79"/>
</g>
<!-- Node7 -->
<g id="node7" class="node">
<title>Node7</title>
<g id="a_node7"><a xlink:href="group__core__modules.html#gab3380e435c78f855e451be2b17e7cd9e" target="_top" xlink:title="Copy characters from one string to another.">
<polygon fill="white" stroke="black" points="502,-0.5 502,-19.5 627,-19.5 627,-0.5 502,-0.5"/>
<text text-anchor="middle" x="564.5" y="-7.5" font-family="Helvetica,sans-Serif" font-size="10.00">charpak_mod::copytxt</text>
</a>
</g>
</g>
<!-- Node6&#45;&gt;Node7 -->
<g id="edge7" class="edge">
<title>Node6&#45;&gt;Node7</title>
<path fill="none" stroke="midnightblue" d="M445.62,-10C460.26,-10 476.16,-10 491.4,-10"/>
<polygon fill="midnightblue" stroke="midnightblue" points="491.82,-13.5 501.82,-10 491.82,-6.5 491.82,-13.5"/>
</g>
</g>
</svg>
