<?xml version="1.0" encoding="UTF-8" standalone="no"?>
<!DOCTYPE svg PUBLIC "-//W3C//DTD SVG 1.1//EN"
 "http://www.w3.org/Graphics/SVG/1.1/DTD/svg11.dtd">
<!-- Generated by graphviz version 2.43.0 (0)
 -->
<!-- Title: chemstate_mod::getspecconc Pages: 1 -->
<svg width="980pt" height="80pt"
 viewBox="0.00 0.00 980.00 80.32" xmlns="http://www.w3.org/2000/svg" xmlns:xlink="http://www.w3.org/1999/xlink">
<g id="graph0" class="graph" transform="scale(1 1) rotate(0) translate(4 76.32)">
<title>chemstate_mod::getspecconc</title>
<polygon fill="white" stroke="transparent" points="-4,4 -4,-76.32 976,-76.32 976,4 -4,4"/>
<!-- Node1 -->
<g id="node1" class="node">
<title>Node1</title>
<g id="a_node1"><a xlink:title="Get the concentration of a species.">
<polygon fill="#bfbfbf" stroke="black" points="0,-38.5 0,-57.5 162,-57.5 162,-38.5 0,-38.5"/>
<text text-anchor="middle" x="81" y="-45.5" font-family="Helvetica,sans-Serif" font-size="10.00">chemstate_mod::getspecconc</text>
</a>
</g>
</g>
<!-- Node2 -->
<g id="node2" class="node">
<title>Node2</title>
<g id="a_node2"><a xlink:href="group__core__modules.html#ga51caf927c8403a431dd55956762ad350" target="_top" xlink:title="CC_Error.">
<polygon fill="white" stroke="black" points="471,-38.5 471,-57.5 583,-57.5 583,-38.5 471,-38.5"/>
<text text-anchor="middle" x="527" y="-45.5" font-family="Helvetica,sans-Serif" font-size="10.00">error_mod::cc_error</text>
</a>
</g>
</g>
<!-- Node1&#45;&gt;Node2 -->
<g id="edge1" class="edge">
<title>Node1&#45;&gt;Node2</title>
<path fill="none" stroke="midnightblue" d="M129.19,-57.51C150.17,-61.28 175.22,-65.15 198,-67 287.48,-74.28 310.47,-73.71 400,-67 421.14,-65.42 444.1,-62.36 464.57,-59.15"/>
<polygon fill="midnightblue" stroke="midnightblue" points="465.39,-62.56 474.7,-57.51 464.27,-55.65 465.39,-62.56"/>
</g>
<!-- Node5 -->
<g id="node5" class="node">
<title>Node5</title>
<g id="a_node5"><a xlink:href="group__core__modules.html#gac48c78e03feb963169b016b226e09c39" target="_top" xlink:title="Get the concentration of a species by index.">
<polygon fill="white" stroke="black" points="198.5,-38.5 198.5,-57.5 399.5,-57.5 399.5,-38.5 198.5,-38.5"/>
<text text-anchor="middle" x="299" y="-45.5" font-family="Helvetica,sans-Serif" font-size="10.00">chemstate_mod::getspecconcbyindex</text>
</a>
</g>
</g>
<!-- Node1&#45;&gt;Node5 -->
<g id="edge4" class="edge">
<title>Node1&#45;&gt;Node5</title>
<path fill="none" stroke="midnightblue" d="M162.12,-48C170.58,-48 179.28,-48 188,-48"/>
<polygon fill="midnightblue" stroke="midnightblue" points="188.23,-51.5 198.23,-48 188.23,-44.5 188.23,-51.5"/>
</g>
<!-- Node6 -->
<g id="node6" class="node">
<title>Node6</title>
<g id="a_node6"><a xlink:href="group__core__modules.html#gaa5bad117f9850269ff98d078f1dd69c6" target="_top" xlink:title="Get the concentration of a species by name.">
<polygon fill="white" stroke="black" points="198,-0.5 198,-19.5 400,-19.5 400,-0.5 198,-0.5"/>
<text text-anchor="middle" x="299" y="-7.5" font-family="Helvetica,sans-Serif" font-size="10.00">chemstate_mod::getspecconcbyname</text>
</a>
</g>
</g>
<!-- Node1&#45;&gt;Node6 -->
<g id="edge6" class="edge">
<title>Node1&#45;&gt;Node6</title>
<path fill="none" stroke="midnightblue" d="M136.23,-38.46C165.88,-33.24 202.8,-26.75 233.88,-21.28"/>
<polygon fill="midnightblue" stroke="midnightblue" points="234.51,-24.72 243.75,-19.54 233.3,-17.83 234.51,-24.72"/>
</g>
<!-- Node3 -->
<g id="node3" class="node">
<title>Node3</title>
<g id="a_node3"><a xlink:href="group__core__modules.html#ga3890886a8d25cb4253fe2706c44e6e78" target="_top" xlink:title="Print a string in multiple lines.">
<polygon fill="white" stroke="black" points="654,-38.5 654,-57.5 813,-57.5 813,-38.5 654,-38.5"/>
<text text-anchor="middle" x="733.5" y="-45.5" font-family="Helvetica,sans-Serif" font-size="10.00">charpak_mod::wordwrapprint</text>
</a>
</g>
</g>
<!-- Node2&#45;&gt;Node3 -->
<g id="edge2" class="edge">
<title>Node2&#45;&gt;Node3</title>
<path fill="none" stroke="midnightblue" d="M583.07,-48C601.78,-48 623.18,-48 643.83,-48"/>
<polygon fill="midnightblue" stroke="midnightblue" points="643.9,-51.5 653.9,-48 643.9,-44.5 643.9,-51.5"/>
</g>
<!-- Node4 -->
<g id="node4" class="node">
<title>Node4</title>
<g id="a_node4"><a xlink:href="group__core__modules.html#ga36b722fb300c543f0eb910116bb28973" target="_top" xlink:title="Count the number of times a character appears in a string.">
<polygon fill="white" stroke="black" points="849,-38.5 849,-57.5 972,-57.5 972,-38.5 849,-38.5"/>
<text text-anchor="middle" x="910.5" y="-45.5" font-family="Helvetica,sans-Serif" font-size="10.00">charpak_mod::cntmat</text>
</a>
</g>
</g>
<!-- Node3&#45;&gt;Node4 -->
<g id="edge3" class="edge">
<title>Node3&#45;&gt;Node4</title>
<path fill="none" stroke="midnightblue" d="M813.04,-48C821.57,-48 830.21,-48 838.64,-48"/>
<polygon fill="midnightblue" stroke="midnightblue" points="838.79,-51.5 848.79,-48 838.79,-44.5 838.79,-51.5"/>
</g>
<!-- Node5&#45;&gt;Node2 -->
<g id="edge5" class="edge">
<title>Node5&#45;&gt;Node2</title>
<path fill="none" stroke="midnightblue" d="M399.78,-48C420.43,-48 441.68,-48 460.71,-48"/>
<polygon fill="midnightblue" stroke="midnightblue" points="460.74,-51.5 470.74,-48 460.74,-44.5 460.74,-51.5"/>
</g>
<!-- Node6&#45;&gt;Node2 -->
<g id="edge7" class="edge">
<title>Node6&#45;&gt;Node2</title>
<path fill="none" stroke="midnightblue" d="M356.74,-19.54C388.38,-24.86 427.91,-31.51 460.82,-37.04"/>
<polygon fill="midnightblue" stroke="midnightblue" points="460.36,-40.51 470.8,-38.72 461.52,-33.61 460.36,-40.51"/>
</g>
<!-- Node7 -->
<g id="node7" class="node">
<title>Node7</title>
<g id="a_node7"><a xlink:href="group__core__modules.html#ga486e3baceb107a718cd8c73e83c92f1b" target="_top" xlink:title="Find the species by name.">
<polygon fill="white" stroke="black" points="436,-0.5 436,-19.5 618,-19.5 618,-0.5 436,-0.5"/>
<text text-anchor="middle" x="527" y="-7.5" font-family="Helvetica,sans-Serif" font-size="10.00">chemstate_mod::findspecbyname</text>
</a>
</g>
</g>
<!-- Node6&#45;&gt;Node7 -->
<g id="edge8" class="edge">
<title>Node6&#45;&gt;Node7</title>
<path fill="none" stroke="midnightblue" d="M400.11,-10C408.68,-10 417.36,-10 425.93,-10"/>
<polygon fill="midnightblue" stroke="midnightblue" points="425.93,-13.5 435.93,-10 425.93,-6.5 425.93,-13.5"/>
</g>
</g>
</svg>
