<?xml version="1.0" encoding="UTF-8" standalone="no"?>
<!DOCTYPE svg PUBLIC "-//W3C//DTD SVG 1.1//EN"
 "http://www.w3.org/Graphics/SVG/1.1/DTD/svg11.dtd">
<!-- Generated by graphviz version 2.43.0 (0)
 -->
<!-- Title: emisstate_mod::emisstatetype Pages: 1 -->
<svg width="394pt" height="95pt"
 viewBox="0.00 0.00 394.00 95.00" xmlns="http://www.w3.org/2000/svg" xmlns:xlink="http://www.w3.org/1999/xlink">
<g id="graph0" class="graph" transform="scale(1 1) rotate(0) translate(4 91)">
<title>emisstate_mod::emisstatetype</title>
<polygon fill="white" stroke="transparent" points="-4,4 -4,-91 390,-91 390,4 -4,4"/>
<!-- Node1 -->
<g id="node1" class="node">
<title>Node1</title>
<g id="a_node1"><a xlink:title="Emission State.">
<polygon fill="#bfbfbf" stroke="black" points="110,-0.5 110,-19.5 279,-19.5 279,-0.5 110,-0.5"/>
<text text-anchor="middle" x="194.5" y="-7.5" font-family="Helvetica,sans-Serif" font-size="10.00">emisstate_mod::emisstatetype</text>
</a>
</g>
</g>
<!-- Node2 -->
<g id="node2" class="node">
<title>Node2</title>
<g id="a_node2"><a xlink:title=" ">
<polygon fill="white" stroke="#bfbfbf" points="0,-67.5 0,-86.5 187,-86.5 187,-67.5 0,-67.5"/>
<text text-anchor="middle" x="93.5" y="-74.5" font-family="Helvetica,sans-Serif" font-size="10.00">emisstate_mod::emiscategorytype</text>
</a>
</g>
</g>
<!-- Node2&#45;&gt;Node1 -->
<g id="edge1" class="edge">
<title>Node2&#45;&gt;Node1</title>
<path fill="none" stroke="#9a32cd" stroke-dasharray="5,2" d="M115.61,-61.77C135.61,-48.9 164.39,-30.38 181.09,-19.63"/>
<polygon fill="#9a32cd" stroke="#9a32cd" points="113.64,-58.88 107.12,-67.23 117.42,-64.77 113.64,-58.88"/>
<text text-anchor="middle" x="162.5" y="-41" font-family="Helvetica,sans-Serif" font-size="10.00"> cats</text>
</g>
<!-- Node3 -->
<g id="node3" class="node">
<title>Node3</title>
<g id="a_node3"><a xlink:title=" ">
<polygon fill="white" stroke="#bfbfbf" points="205,-67.5 205,-86.5 386,-86.5 386,-67.5 205,-67.5"/>
<text text-anchor="middle" x="295.5" y="-74.5" font-family="Helvetica,sans-Serif" font-size="10.00">emisstate_mod::emisspeciestype</text>
</a>
</g>
</g>
<!-- Node3&#45;&gt;Node1 -->
<g id="edge2" class="edge">
<title>Node3&#45;&gt;Node1</title>
<path fill="none" stroke="#9a32cd" stroke-dasharray="5,2" d="M273.39,-61.77C253.39,-48.9 224.61,-30.38 207.91,-19.63"/>
<polygon fill="#9a32cd" stroke="#9a32cd" points="271.58,-64.77 281.88,-67.23 275.36,-58.88 271.58,-64.77"/>
<text text-anchor="middle" x="277.5" y="-41" font-family="Helvetica,sans-Serif" font-size="10.00"> totspecies</text>
</g>
</g>
</svg>
